<?xml version="1.0" encoding="UTF-8" standalone="no"?>
<!-- Created with Inkscape (http://www.inkscape.org/) -->

<svg
   xmlns:dc="http://purl.org/dc/elements/1.1/"
   xmlns:cc="http://creativecommons.org/ns#"
   xmlns:rdf="http://www.w3.org/1999/02/22-rdf-syntax-ns#"
   xmlns:svg="http://www.w3.org/2000/svg"
   xmlns="http://www.w3.org/2000/svg"
   xmlns:sodipodi="http://sodipodi.sourceforge.net/DTD/sodipodi-0.dtd"
   xmlns:inkscape="http://www.inkscape.org/namespaces/inkscape"
   width="992.12598"
   height="1062.9921"
   id="svg3000"
   version="1.1"
   inkscape:version="0.48.3.1 r9886"
   sodipodi:docname="JogAmpBOFSiggraph2013TShirtFront.svg"
   inkscape:export-filename="/usr/local/projects/JOGL/jogamp.org/doc/siggraph2013/t-shirt/JogAmpBOFSiggraph2013TShirtFront.png"
   inkscape:export-xdpi="90"
   inkscape:export-ydpi="90">
  <defs
     id="defs3002" />
  <sodipodi:namedview
     id="base"
     pagecolor="#ffffff"
     bordercolor="#666666"
     borderopacity="1.0"
     inkscape:pageopacity="0.0"
     inkscape:pageshadow="2"
     inkscape:zoom="1.2147"
     inkscape:cx="513.10313"
     inkscape:cy="463.0624"
     inkscape:document-units="mm"
     inkscape:current-layer="layer1"
     showgrid="false"
     fit-margin-top="0"
     fit-margin-left="0"
     fit-margin-right="0"
     fit-margin-bottom="0"
     units="mm"
     inkscape:window-width="1162"
     inkscape:window-height="1413"
     inkscape:window-x="173"
     inkscape:window-y="0"
     inkscape:window-maximized="0" />
  <metadata
     id="metadata3005">
    <rdf:RDF>
      <cc:Work
         rdf:about="">
        <dc:format>image/svg+xml</dc:format>
        <dc:type
           rdf:resource="http://purl.org/dc/dcmitype/StillImage" />
        <dc:title />
      </cc:Work>
    </rdf:RDF>
  </metadata>
  <g
     inkscape:label="Layer 1"
     inkscape:groupmode="layer"
     id="layer1"
     transform="translate(2021.9918,-2369.8462)">
    <g
       id="g3506"
       transform="matrix(0.26718368,0,0,0.26718368,-1570.7884,2515.037)">
      <g
         transform="translate(-1230.4677,-637.77715)"
         id="A1_Balken">
        <g
           id="g3048">
          <polygon
             style="fill:#3b4d4f;fill-rule:evenodd"
             clip-rule="evenodd"
             points="2215.01,1364.667 1621.491,203.054 1254.633,203.517 1849.188,1365.13 "
             id="polygon3050" />
        </g>
      </g>
      <g
         transform="translate(-1230.4677,-637.77715)"
         id="A1_Strich_-_Kappe_Unten">
        <g
           id="g3053">
          <polygon
             style="fill:#3b4d4f"
             points="2008.422,1221.13 2000.576,1219.319 1992.613,1217.936 1984.564,1216.984 1976.462,1216.468 1968.338,1216.391 1960.225,1216.751 1952.153,1217.55 1944.156,1218.781 1936.266,1220.442 1928.511,1222.526 1920.925,1225.024 1913.535,1227.924 1906.373,1231.22 1899.465,1234.894 1892.84,1238.935 1886.524,1243.324 1880.539,1248.046 1874.913,1253.082 1869.665,1258.41 1864.815,1264.012 1860.386,1269.864 1856.395,1275.943 1852.854,1282.226 1849.779,1288.687 1847.184,1295.302 1845.076,1302.043 1843.465,1308.885 1842.357,1315.8 1841.758,1322.762 1841.667,1329.742 1842.088,1336.713 1843.017,1343.648 1844.45,1350.519 1846.383,1357.299 1848.808,1363.961 1851.715,1370.48 1855.092,1376.829 1858.928,1382.982 1863.204,1388.917 1867.906,1394.61 1873.015,1400.038 1878.51,1405.179 1884.372,1410.013 1890.573,1414.522 1897.093,1418.688 1903.902,1422.493 1910.98,1425.924 1918.292,1428.965 1925.812,1431.607 1933.51,1433.838 1941.357,1435.649 1949.32,1437.033 1957.369,1437.984 1965.471,1438.5 1969.656,1438.54 1969.657,1438.884 2337.62,1438.884 2337.716,1438.639 2333.646,1438.654 2325.515,1438.246 2317.428,1437.402 2309.419,1436.127 2301.521,1434.424 2293.763,1432.301 2286.175,1429.766 2278.79,1426.831 2271.635,1423.503 2264.738,1419.799 2258.128,1415.733 2251.83,1411.32 2245.869,1406.578 2240.267,1401.526 2235.048,1396.183 2230.233,1390.571 2225.839,1384.711 2221.886,1378.628 2218.387,1372.346 2215.356,1365.887 2213.596,1361.893 2093.916,1361.79 2094.75,1359.666 2096.857,1352.924 2098.468,1346.083 2099.575,1339.167 2100.176,1332.206 2100.266,1325.226 2099.845,1318.255 2098.917,1311.321 2097.483,1304.449 2095.55,1297.668 2093.125,1291.006 2090.219,1284.488 2086.84,1278.139 2083.006,1271.986 2078.728,1266.05 2074.026,1260.358 2068.917,1254.93 2063.422,1249.789 2057.562,1244.955 2051.36,1240.446 2044.84,1236.28 2038.029,1232.475 2030.954,1229.043 2023.642,1226.001 2016.121,1223.361 "
             id="polygon3055" />
        </g>
      </g>
      <g
         transform="translate(-1230.4677,-637.77715)"
         id="A1_Strich_-_Kappe_Oben">
        <g
           id="g3058">
          <polygon
             style="fill:#3b4d4f"
             points="1377.233,211.569 1375.126,218.311 1373.515,225.152 1372.408,232.068 1371.807,239.03 1371.717,246.009 1372.137,252.981 1373.066,259.916 1374.5,266.786 1376.432,273.566 1378.858,280.229 1381.764,286.748 1385.142,293.096 1388.977,299.25 1393.253,305.185 1397.956,310.877 1403.065,316.305 1408.56,321.446 1414.42,326.28 1420.622,330.79 1427.143,334.955 1433.954,338.76 1441.029,342.19 1448.341,345.233 1455.862,347.875 1463.56,350.105 1471.406,351.916 1479.37,353.3 1487.418,354.251 1495.521,354.767 1503.644,354.844 1511.758,354.484 1519.83,353.686 1527.826,352.454 1535.717,350.793 1543.471,348.709 1551.058,346.211 1558.447,343.311 1565.61,340.015 1572.517,336.341 1579.142,332.3 1585.459,327.911 1591.443,323.189 1597.07,318.154 1602.318,312.825 1607.166,307.223 1611.595,301.372 1615.588,295.292 1619.128,289.01 1622.204,282.548 1624.799,275.933 1626.907,269.192 1628.517,262.35 1629.625,255.435 1630.225,248.473 1630.316,241.493 1629.895,234.521 1628.966,227.587 1627.533,220.716 1625.6,213.936 1623.175,207.274 1620.268,200.755 1616.891,194.406 1613.056,188.253 1608.778,182.318 1604.077,176.625 1598.967,171.197 1593.472,166.056 1587.612,161.222 1581.41,156.713 1574.89,152.547 1568.078,148.742 1561.003,145.312 1553.69,142.269 1546.171,139.628 1538.472,137.397 1530.626,135.586 1522.663,134.202 1514.614,133.251 1506.513,132.735 1502.328,132.696 1502.328,132.351 1149.72,132.351 1154.343,132.842 1162.291,134.132 1170.129,135.853 1177.827,137.999 1185.355,140.561 1192.683,143.529 1199.783,146.892 1206.625,150.636 1213.185,154.746 1219.435,159.208 1225.351,164.001 1230.909,169.108 1236.086,174.508 1240.865,180.182 1245.224,186.104 1249.147,192.253 1252.62,198.605 1255.626,205.133 1256.188,206.618 1379.177,206.618 "
             id="polygon3060" />
        </g>
      </g>
      <g
         transform="translate(-1230.4677,-637.77715)"
         id="A2_Balken">
        <g
           id="g3063">
          <polygon
             style="fill:#a6ceff;fill-rule:evenodd"
             clip-rule="evenodd"
             points="2671.298,1364.667 2077.777,203.054 1710.92,203.517 2305.476,1365.13 "
             id="polygon3065" />
        </g>
      </g>
      <g
         transform="translate(-1230.4677,-637.77715)"
         id="A2_Strich_-_Kappe_Unten">
        <g
           id="g3068">
          <polygon
             style="fill:#a6ceff"
             points="2464.71,1221.13 2456.864,1219.319 2448.9,1217.936 2440.851,1216.984 2432.75,1216.468 2424.626,1216.391 2416.512,1216.751 2408.441,1217.55 2400.444,1218.781 2392.552,1220.442 2384.798,1222.526 2377.211,1225.024 2369.823,1227.924 2362.66,1231.22 2355.752,1234.894 2349.128,1238.935 2342.811,1243.324 2336.827,1248.046 2331.2,1253.082 2325.952,1258.41 2321.104,1264.012 2316.675,1269.864 2312.682,1275.943 2309.142,1282.226 2306.067,1288.687 2303.471,1295.302 2301.364,1302.043 2299.752,1308.885 2298.645,1315.8 2298.044,1322.762 2297.955,1329.742 2298.375,1336.713 2299.304,1343.648 2300.738,1350.519 2302.671,1357.299 2305.095,1363.961 2308.002,1370.48 2311.38,1376.829 2315.214,1382.982 2319.491,1388.917 2324.194,1394.61 2329.302,1400.038 2334.798,1405.179 2340.659,1410.013 2346.861,1414.522 2353.38,1418.688 2360.191,1422.493 2367.267,1425.924 2374.579,1428.965 2382.1,1431.607 2389.798,1433.838 2397.644,1435.649 2405.607,1437.033 2413.656,1437.984 2421.758,1438.5 2425.944,1438.54 2425.945,1438.884 2793.907,1438.884 2794.003,1438.639 2789.934,1438.654 2781.802,1438.246 2773.715,1437.402 2765.707,1436.127 2757.808,1434.424 2750.05,1432.301 2742.463,1429.766 2735.077,1426.831 2727.922,1423.503 2721.026,1419.799 2714.416,1415.733 2708.116,1411.32 2702.156,1406.578 2696.554,1401.526 2691.336,1396.183 2686.521,1390.571 2682.126,1384.711 2678.173,1378.628 2674.673,1372.346 2671.644,1365.887 2669.884,1361.893 2550.203,1361.79 2551.037,1359.666 2553.145,1352.924 2554.755,1346.083 2555.863,1339.167 2556.462,1332.206 2556.552,1325.226 2556.132,1318.255 2555.204,1311.321 2553.771,1304.449 2551.837,1297.668 2549.413,1291.006 2546.506,1284.488 2543.128,1278.139 2539.293,1271.986 2535.016,1266.05 2530.314,1260.358 2525.205,1254.93 2519.709,1249.789 2513.85,1244.955 2507.647,1240.446 2501.127,1236.28 2494.317,1232.475 2487.241,1229.043 2479.928,1226.001 2472.408,1223.361 "
             id="polygon3070" />
        </g>
      </g>
      <g
         transform="translate(-1230.4677,-637.77715)"
         id="A2_Strich_-_Kappe_Oben">
        <g
           id="g3073">
          <polygon
             style="fill:#a6ceff"
             points="1833.521,211.569 1831.414,218.311 1829.802,225.152 1828.695,232.068 1828.095,239.03 1828.005,246.009 1828.425,252.981 1829.353,259.916 1830.788,266.786 1832.72,273.566 1835.145,280.229 1838.052,286.748 1841.43,293.096 1845.263,299.25 1849.541,305.185 1854.244,310.877 1859.353,316.305 1864.848,321.446 1870.708,326.28 1876.911,330.79 1883.429,334.955 1890.241,338.76 1897.316,342.19 1904.628,345.233 1912.148,347.875 1919.848,350.105 1927.693,351.916 1935.657,353.3 1943.705,354.251 1951.808,354.767 1959.932,354.844 1968.046,354.484 1976.116,353.686 1984.113,352.454 1992.005,350.793 1999.759,348.709 2007.346,346.211 2014.734,343.311 2021.897,340.015 2028.805,336.341 2035.429,332.3 2041.747,327.911 2047.73,323.189 2053.357,318.154 2058.606,312.825 2063.454,307.223 2067.883,301.372 2071.875,295.292 2075.417,289.01 2078.49,282.548 2081.086,275.933 2083.194,269.192 2084.805,262.35 2085.912,255.435 2086.512,248.473 2086.602,241.493 2086.183,234.521 2085.253,227.587 2083.819,220.716 2081.886,213.936 2079.462,207.274 2076.555,200.755 2073.177,194.406 2069.343,188.253 2065.066,182.318 2060.363,176.625 2055.254,171.197 2049.759,166.056 2043.899,161.222 2037.696,156.713 2031.178,152.547 2024.366,148.742 2017.291,145.312 2009.978,142.269 2002.458,139.628 1994.759,137.397 1986.914,135.586 1978.95,134.202 1970.902,133.251 1962.799,132.735 1958.614,132.696 1958.614,132.351 1606.007,132.351 1610.63,132.842 1618.577,134.132 1626.415,135.853 1634.113,137.999 1641.641,140.561 1648.971,143.529 1656.07,146.892 1662.913,150.636 1669.472,154.746 1675.722,159.208 1681.637,164.001 1687.195,169.108 1692.374,174.508 1697.152,180.182 1701.512,186.104 1705.435,192.253 1708.907,198.605 1711.914,205.133 1712.476,206.618 1835.463,206.618 "
             id="polygon3075" />
        </g>
      </g>
      <g
         transform="translate(-1230.4677,-637.77715)"
         id="A3_Balken">
        <g
           id="g3078">
          <polygon
             style="fill:#a6ceff"
             points="1329.008,1365.13 1546.916,939.394 1419.068,691.358 1307.21,691.358 963.187,1364.667 "
             id="polygon3080" />
        </g>
      </g>
      <g
         transform="translate(-1230.4677,-637.77715)"
         id="A3_Strich_-_Kappe_Unten">
        <g
           id="g3083">
          <polygon
             style="fill:#a6ceff"
             points="1079.281,1311.321 1078.353,1318.255 1077.933,1325.226 1078.021,1332.206 1078.622,1339.167 1079.73,1346.083 1081.34,1352.924 1083.448,1359.666 1084.282,1361.79 964.601,1361.893 962.84,1365.887 959.811,1372.346 956.312,1378.628 952.358,1384.711 947.964,1390.571 943.149,1396.183 937.931,1401.526 932.33,1406.578 926.368,1411.32 920.07,1415.733 913.459,1419.799 906.563,1423.503 899.407,1426.831 892.022,1429.766 884.435,1432.301 876.677,1434.424 868.778,1436.127 860.769,1437.402 852.682,1438.246 844.55,1438.654 840.481,1438.639 840.578,1438.884 1208.541,1438.884 1208.541,1438.54 1212.727,1438.5 1220.829,1437.984 1228.877,1437.033 1236.841,1435.649 1244.687,1433.838 1252.385,1431.607 1259.906,1428.965 1267.218,1425.924 1274.293,1422.493 1281.105,1418.688 1287.624,1414.522 1293.827,1410.013 1299.687,1405.179 1305.182,1400.038 1310.292,1394.61 1314.994,1388.917 1319.271,1382.982 1323.105,1376.829 1326.482,1370.48 1329.389,1363.961 1331.815,1357.299 1333.748,1350.519 1335.182,1343.648 1336.11,1336.713 1336.53,1329.742 1336.44,1322.762 1335.84,1315.8 1334.732,1308.885 1333.122,1302.043 1331.014,1295.302 1328.417,1288.687 1325.344,1282.226 1321.802,1275.943 1317.811,1269.864 1313.38,1264.012 1308.534,1258.41 1303.285,1253.082 1297.658,1248.046 1291.674,1243.324 1285.357,1238.935 1278.733,1234.894 1271.824,1231.22 1264.662,1227.924 1257.272,1225.024 1249.687,1222.526 1241.932,1220.442 1234.041,1218.781 1226.044,1217.55 1217.973,1216.751 1209.859,1216.391 1201.735,1216.468 1193.632,1216.984 1185.584,1217.936 1177.622,1219.319 1169.775,1221.13 1162.077,1223.361 1154.556,1226.001 1147.243,1229.043 1140.168,1232.475 1133.358,1236.28 1126.837,1240.446 1120.635,1244.955 1114.776,1249.789 1109.279,1254.93 1104.17,1260.358 1099.469,1266.05 1095.191,1271.986 1091.357,1278.139 1087.979,1284.488 1085.072,1291.006 1082.648,1297.668 1080.714,1304.449 "
             id="polygon3085" />
        </g>
      </g>
      <g
         transform="translate(-1230.4677,-637.77715)"
         id="A3_Strich_-_Kappe_Oben">
        <g
           id="g3088">
          <polygon
             style="fill:#a6ceff;fill-rule:evenodd"
             clip-rule="evenodd"
             points="1285.483,800.808 1285.091,812.533 1285.006,824.293 1285.23,836.043 1285.759,847.738 1286.595,859.328 1287.729,870.77 1289.163,882.019 1290.887,893.028 1292.896,903.756 1295.181,914.16 1297.733,924.199 1300.543,933.833 1303.6,943.024 1306.889,951.737 1310.402,959.935 1314.121,967.588 1318.033,974.666 1322.122,981.138 1326.373,986.981 1330.766,992.172 1335.288,996.691 1339.919,1000.517 1344.641,1003.639 1349.435,1006.042 1354.283,1007.717 1359.164,1008.658 1364.061,1008.861 1368.954,1008.325 1373.822,1007.053 1378.648,1005.048 1383.411,1002.32 1388.095,998.878 1392.678,994.737 1397.146,989.914 1401.477,984.425 1405.656,978.294 1409.667,971.545 1413.494,964.206 1417.122,956.302 1420.535,947.868 1423.721,938.935 1426.668,929.54 1429.363,919.718 1431.796,909.51 1433.958,898.955 1435.839,888.094 1437.433,876.971 1438.731,865.631 1439.732,854.116 1440.43,842.474 1440.822,830.749 1440.906,818.988 1440.683,807.237 1440.153,795.543 1439.318,783.953 1438.182,772.511 1436.75,761.263 1435.026,750.253 1433.017,739.526 1430.732,729.122 1428.18,719.083 1425.37,709.448 1423.248,700.257 1419.183,691.786 1415.511,683.346 1411.792,675.693 1407.88,668.617 1403.792,662.144 1399.541,656.3 1395.146,651.108 1390.625,646.591 1385.994,642.763 1381.271,639.642 1376.477,637.239 1371.63,635.563 1366.749,634.623 1361.851,634.419 1356.959,634.956 1352.09,636.229 1347.265,638.233 1342.501,640.962 1337.818,644.403 1333.234,648.544 1328.767,653.368 1324.436,658.856 1320.257,664.986 1316.245,671.735 1312.418,679.075 1308.791,686.979 1305.377,695.413 1302.191,704.346 1299.245,713.742 1296.55,723.563 1294.117,733.771 1291.955,744.327 1290.074,755.187 1288.48,766.31 1287.181,777.651 1286.18,789.165 "
             id="polygon3090" />
        </g>
      </g>
      <g
         transform="translate(-1230.4677,-637.77715)"
         id="J_Balken_2">
        <g
           id="g3093">
          <path
             style="fill:#3b4d4f"
             inkscape:connector-curvature="0"
             d="m 1075.666,243.668 -572.768,1120.999 365.82,0.464 445.66,-870.707 -129.25,-250.755 h -109.462 z m 339.751,0 1.239,50.93 26.068,-50.93 h -27.307 z"
             id="path3095" />
        </g>
      </g>
      <g
         transform="translate(-1230.4677,-637.77715)"
         id="J_Strich_-_Kappe_Unten">
        <g
           id="g3098">
          <polygon
             style="fill:#3b4d4f"
             points="605.418,1235.314 598.552,1231.556 591.426,1228.175 584.066,1225.187 576.502,1222.599 568.764,1220.425 560.881,1218.673 552.887,1217.35 544.812,1216.459 536.687,1216.006 528.545,1215.993 520.418,1216.417 512.338,1217.28 504.338,1218.576 496.449,1220.301 488.7,1222.449 481.124,1225.01 473.75,1227.974 466.608,1231.331 459.725,1235.065 453.128,1239.164 446.844,1243.609 440.898,1248.385 435.313,1253.472 430.11,1258.85 425.312,1264.5 420.936,1270.395 416.999,1276.515 413.518,1282.835 410.505,1289.331 407.974,1295.977 405.934,1302.746 404.392,1309.611 403.356,1316.545 402.828,1323.522 402.812,1330.514 403.307,1337.493 404.311,1344.431 405.821,1351.301 407.83,1358.078 410.331,1364.731 413.313,1371.237 416.764,1377.569 420.672,1383.703 425.021,1389.614 429.794,1395.279 434.971,1400.674 440.533,1405.781 446.457,1410.578 452.72,1415.044 459.297,1419.166 466.163,1422.923 473.29,1426.304 480.65,1429.293 488.213,1431.88 495.952,1434.054 503.833,1435.807 511.829,1437.13 519.904,1438.02 528.029,1438.473 534.384,1438.484 534.384,1438.484 534.426,1438.484 536.17,1438.487 536.227,1438.484 742.208,1438.484 744.313,1438.578 752.437,1438.5 760.539,1437.984 768.587,1437.033 776.551,1435.649 784.397,1433.838 792.096,1431.607 799.616,1428.965 806.928,1425.924 814.003,1422.493 820.815,1418.688 827.335,1414.522 833.538,1410.013 839.397,1405.179 844.892,1400.038 850.002,1394.61 854.704,1388.917 858.98,1382.982 862.816,1376.829 866.192,1370.48 869.099,1363.961 871.525,1357.299 873.458,1350.519 874.892,1343.648 875.82,1336.713 876.24,1329.742 876.15,1322.762 875.549,1315.8 874.442,1308.885 872.832,1302.043 870.724,1295.302 868.127,1288.687 865.054,1282.226 861.513,1275.943 857.521,1269.864 853.09,1264.012 848.244,1258.41 842.995,1253.082 837.369,1248.046 831.384,1243.324 825.069,1238.935 818.443,1234.894 811.534,1231.22 804.372,1227.924 796.983,1225.024 789.396,1222.526 781.643,1220.442 773.751,1218.781 765.754,1217.55 757.684,1216.751 749.569,1216.391 741.445,1216.468 733.343,1216.984 725.294,1217.936 717.332,1219.319 709.486,1221.13 701.786,1223.361 694.266,1226.001 686.954,1229.043 679.878,1232.475 673.067,1236.28 666.547,1240.446 660.346,1244.955 654.486,1249.789 648.99,1254.93 643.88,1260.358 639.912,1265.163 639.694,1264.867 634.922,1259.202 629.745,1253.805 624.183,1248.7 618.258,1243.903 611.996,1239.435 "
             id="polygon3100" />
        </g>
      </g>
      <g
         transform="translate(-1230.4677,-637.77715)"
         id="J_Strich_-_Kappe_Oben">
        <g
           id="g3103">
          <polygon
             style="fill:#3b4d4f;fill-rule:evenodd"
             clip-rule="evenodd"
             points="1052.937,356.125 1052.545,367.85 1052.46,379.61 1052.684,391.36 1053.213,403.054 1054.048,414.645 1055.184,426.086 1056.617,437.335 1058.34,448.344 1060.349,459.072 1062.634,469.477 1065.187,479.515 1067.998,489.149 1071.052,498.34 1074.342,507.053 1077.855,515.251 1081.574,522.904 1085.485,529.98 1089.575,536.455 1093.825,542.297 1098.22,547.489 1102.742,552.007 1107.373,555.834 1112.094,558.956 1116.889,561.358 1121.736,563.034 1126.618,563.974 1131.515,564.177 1136.408,563.642 1141.275,562.369 1146.101,560.365 1150.865,557.636 1155.549,554.194 1160.132,550.053 1164.598,545.229 1168.931,539.741 1173.11,533.611 1177.122,526.862 1180.948,519.522 1184.576,511.619 1187.989,503.184 1191.175,494.251 1194.121,484.856 1196.816,475.034 1199.25,464.827 1201.412,454.271 1203.292,443.41 1204.885,432.288 1206.185,420.947 1207.186,409.432 1207.883,397.79 1208.275,386.065 1208.36,374.304 1208.136,362.553 1207.607,350.859 1206.771,339.269 1205.636,327.827 1204.203,316.58 1202.479,305.569 1200.47,294.841 1198.185,284.437 1195.633,274.399 1192.823,264.765 1190.701,255.574 1186.637,247.102 1182.964,238.663 1179.245,231.01 1175.333,223.933 1171.244,217.459 1166.994,211.616 1162.6,206.424 1158.078,201.906 1153.447,198.08 1148.726,194.958 1143.931,192.555 1139.083,190.88 1134.202,189.939 1129.305,189.736 1124.412,190.272 1119.543,191.545 1114.718,193.549 1109.955,196.278 1105.272,199.719 1100.688,203.86 1096.221,208.684 1091.889,214.172 1087.709,220.303 1083.699,227.052 1079.872,234.392 1076.245,242.295 1072.831,250.729 1069.645,259.662 1066.698,269.058 1064.002,278.879 1061.569,289.088 1059.409,299.643 1057.528,310.503 1055.934,321.626 1054.635,332.967 1053.634,344.481 "
             id="polygon3105" />
        </g>
      </g>
      <g
         transform="translate(-1230.4677,-637.77715)"
         id="J_Balken_1">
        <g
           id="g3108">
          <polygon
             style="fill:#3b4d4f"
             points="484.477,793.68 118.656,794.144 410.325,1364.988 776.892,1364.988 "
             id="polygon3110" />
        </g>
      </g>
      <g
         transform="translate(-1230.4677,-637.77715)"
         id="J_Balken_1_-_Kappe_Unten">
        <g
           id="g3113">
          <polygon
             style="fill:#3b4d4f"
             points="120.068,796.917 239.75,797.02 238.916,799.144 236.809,805.885 235.198,812.727 234.09,819.643 233.49,826.605 233.4,833.584 233.82,840.555 234.749,847.49 236.183,854.361 238.116,861.141 240.541,867.803 243.448,874.323 246.825,880.671 250.66,886.825 254.936,892.759 259.638,898.452 264.748,903.879 270.244,909.021 276.103,913.855 282.305,918.365 288.825,922.53 295.636,926.335 302.711,929.765 310.025,932.808 317.544,935.45 325.243,937.679 333.089,939.491 341.053,940.875 349.102,941.827 357.204,942.342 365.328,942.419 373.441,942.059 381.512,941.26 389.509,940.029 397.4,938.368 405.154,936.285 412.742,933.787 420.13,930.884 427.292,927.59 434.2,923.916 440.826,919.875 447.142,915.486 453.126,910.764 458.753,905.729 464.001,900.4 468.85,894.798 473.278,888.947 477.271,882.867 480.812,876.584 483.886,870.123 486.482,863.508 488.589,856.767 490.201,849.925 491.308,843.01 491.908,836.047 491.998,829.068 491.578,822.096 490.65,815.162 489.215,808.292 487.283,801.511 484.857,794.849 481.952,788.33 478.573,781.981 474.74,775.828 470.461,769.893 465.759,764.2 460.65,758.772 455.155,753.631 449.294,748.797 443.092,744.288 436.572,740.122 429.762,736.317 422.686,732.886 415.374,729.844 407.853,727.203 400.155,724.972 392.308,723.162 384.345,721.777 376.297,720.826 368.195,720.31 364.009,720.27 364.008,719.926 0,719.926 0,720.155 0.019,720.155 8.151,720.564 16.237,721.408 24.246,722.683 32.146,724.386 39.903,726.509 47.49,729.043 54.876,731.98 62.031,735.307 68.927,739.011 75.538,743.077 81.835,747.491 87.797,752.232 93.398,757.284 98.617,762.627 103.433,768.239 107.826,774.099 111.78,780.182 115.279,786.464 118.308,792.923 "
             id="polygon3115" />
        </g>
      </g>
      <g
         transform="translate(-1230.4677,-637.77715)"
         id="J_Kreuzung_Abrundung">
        <g
           id="g3118">
          <polygon
             style="fill:#3b4d4f"
             points="626.893,1042.533 622.128,1040.221 617.432,1037.191 612.824,1033.453 608.322,1029.022 603.944,1023.915 599.708,1018.153 595.627,1011.758 591.722,1004.756 588.005,997.174 584.78,989.705 509.727,989.705 509.727,1208.796 795.468,1208.796 795.468,989.705 694.602,989.705 693.897,991.488 690.324,999.461 686.55,1006.875 682.592,1013.702 678.465,1019.913 674.184,1025.484 669.768,1030.395 665.233,1034.624 660.597,1038.156 655.879,1040.975 651.096,1043.074 646.27,1044.44 641.417,1045.071 636.557,1044.961 631.709,1044.115 "
             id="polygon3120" />
        </g>
      </g>
    </g>
    <g
       id="g4123"
       transform="matrix(0.16056714,0,0,0.16056714,-1613.6931,2605.914)">
      <g
         id="Logo__x22_JO_x22__Teil_1_"
         transform="translate(-4860.6287,664.06475)">
        <g
           id="_x22_J_x22__Blatt_Horizontal_Teil_2">
          <g
             id="g3012">
            <path
               id="path3014"
               d="m 3199.842,604.905 c -101.172,15.346 -178.06,91.603 -178.06,183.396 0,1.763 0.035,3.52 0.091,5.271 h 195.613 V 604.905 h -17.644 z"
               inkscape:connector-curvature="0"
               style="fill:#3b4d4f" />
          </g>
        </g>
        <g
           id="_x22_J_x22__Blatt_Horizontal_Teil_1">
          <g
             id="g3017">
            <path
               id="path3019"
               d="m 3397.188,604.905 h -196.513 v 188.667 h 18.547 c 101.171,-15.348 178.056,-91.604 178.056,-183.396 0,-1.763 -0.034,-3.52 -0.09,-5.271 z"
               inkscape:connector-curvature="0"
               style="fill:#3b4d4f" />
          </g>
        </g>
        <g
           id="_x22_J_x22__Blatt_Vertikal_Teil_1">
          <g
             id="g3022">
            <path
               id="path3024"
               d="m 3821.405,619.281 c 1.763,0 3.519,-0.035 5.27,-0.091 v -2.606 h -34.736 c 9.598,1.767 19.438,2.697 29.466,2.697 z m 0,-431.237 c -91.749,0 -167.99,76.831 -183.376,177.957 v 10.579 h 188.646 V 188.135 c -1.751,-0.056 -3.508,-0.091 -5.27,-0.091 z"
               inkscape:connector-curvature="0"
               style="fill:#3b4d4f" />
          </g>
        </g>
        <g
           id="_x22_J_x22__Blatt_Vertikal_Teil_2">
          <g
             id="g3027">
            <path
               id="path3029"
               d="m 3826.675,368.75 h -188.646 v 194.736 c 1.751,0.056 3.507,0.091 5.27,0.091 91.771,0 168.017,-76.873 183.376,-178.035 V 368.75 z"
               inkscape:connector-curvature="0"
               style="fill:#3b4d4f" />
          </g>
        </g>
        <g
           id="_x22_J_x22__Kreis_Aussen">
          <g
             id="g3032">
            <polygon
               id="polygon3034"
               points="3243.899,947.2 3236.428,932.034 3229.909,916.421 3224.366,900.424 3219.824,884.105 3216.299,867.528 3213.806,850.759 3212.353,833.864 3212.002,819.241 3021.673,819.241 3021.494,829.505 3022.796,858.137 3025.891,886.63 3030.77,914.873 3037.412,942.753 3045.792,970.161 3055.875,996.989 3067.624,1023.13 3080.991,1048.483 3095.921,1072.946 3112.361,1096.423 3130.24,1118.822 3149.491,1140.052 3170.037,1160.034 3191.796,1178.685 3214.685,1195.932 3238.611,1211.708 3263.479,1225.952 3289.193,1238.605 3315.651,1249.618 3342.748,1258.948 3370.376,1266.558 3398.429,1272.418 3426.794,1276.505 3455.36,1278.803 3484.014,1279.302 3512.642,1278.001 3541.131,1274.905 3569.371,1270.026 3597.25,1263.383 3624.654,1255.002 3651.479,1244.917 3677.618,1233.167 3702.969,1219.799 3727.428,1204.866 3750.903,1188.426 3773.3,1170.545 3794.528,1151.292 3814.507,1130.744 3833.156,1108.981 3850.403,1086.091 3866.178,1062.164 3880.419,1037.292 3893.07,1011.576 3901.485,991.359 3858.763,991.359 3858.763,819.241 3743.244,819.241 3743.28,820.744 3742.637,837.691 3740.948,854.564 3738.22,871.295 3734.463,887.82 3729.694,904.072 3723.929,919.988 3717.192,935.504 3709.51,950.561 3700.911,965.096 3691.433,979.055 3681.11,992.381 3669.984,1005.024 3658.099,1016.93 3645.501,1028.055 3632.241,1038.355 3618.372,1047.788 3603.946,1056.317 3589.021,1063.909 3573.658,1070.533 3557.915,1076.166 3541.854,1080.781 3525.541,1084.363 3509.038,1086.896 3492.411,1088.373 3475.726,1088.785 3459.049,1088.131 3442.444,1086.416 3425.979,1083.644 3409.717,1079.827 3393.723,1074.98 3378.06,1069.122 3362.791,1062.275 3347.974,1054.468 3333.669,1045.733 3319.933,1036.1 3306.817,1025.611 3294.377,1014.305 3282.659,1002.228 3271.712,989.427 3261.576,975.953 3252.292,961.858 "
               style="fill:#3b4d4f" />
          </g>
        </g>
        <g
           id="_x22_O_x22__Kreis_Aussen">
          <g
             id="g3037">
            <path
               id="path3039"
               d="m 4651.119,788.104 -3.097,-28.494 -4.878,-28.242 -6.643,-27.88 -8.379,-27.408 -10.085,-26.829 -11.748,-26.142 -13.366,-25.352 -14.934,-24.463 -16.438,-23.478 -17.88,-22.398 -19.25,-21.231 -20.546,-19.981 -21.761,-18.651 -22.888,-17.248 -23.925,-15.776 -24.868,-14.244 -25.714,-12.652 -26.459,-11.014 -27.097,-9.33 -27.629,-7.61 -28.052,-5.86 -28.365,-4.087 -28.566,-2.297 -28.653,-0.499 -28.628,1.301 -28.491,3.096 -28.239,4.879 -27.878,6.643 -27.404,8.381 -26.826,10.085 -26.139,11.75 -25.35,13.368 -24.46,14.934 -23.475,16.439 -22.396,17.881 -21.23,19.253 -19.978,20.548 -18.649,21.761 -17.247,22.891 -15.774,23.927 -14.242,24.872 -12.651,25.716 -11.013,26.461 -9.328,27.099 -7.61,27.632 -5.859,28.055 -4.087,28.368 -1.767,21.984 v 54.98 h -0.132 l 0.404,8.893 3.097,28.493 4.877,28.242 6.643,27.881 8.38,27.407 10.084,26.828 11.749,26.142 13.366,25.353 14.932,24.463 16.438,23.478 17.88,22.398 19.251,21.23 20.546,19.981 21.759,18.651 22.888,17.247 23.926,15.776 24.869,14.243 25.713,12.653 26.458,11.013 27.097,9.33 27.629,7.61 28.053,5.86 28.366,4.087 28.564,2.298 28.653,0.499 28.629,-1.301 28.49,-3.097 28.238,-4.879 27.878,-6.643 27.406,-8.381 26.825,-10.086 26.139,-11.749 25.349,-13.368 24.462,-14.934 23.474,-16.439 22.397,-17.881 21.229,-19.254 19.979,-20.548 18.648,-21.763 17.245,-22.89 15.775,-23.928 14.24,-24.871 12.653,-25.717 11.013,-26.461 9.328,-27.099 7.609,-27.633 5.859,-28.055 4.087,-28.367 2.298,-28.569 0.5,-28.656 -1.298,-28.625 z m -191.491,57.356 -1.916,16.579 -2.953,16.426 -3.974,16.208 -4.982,15.926 -5.97,15.58 -6.935,15.174 -7.87,14.708 -8.776,14.183 -9.647,13.603 -10.479,12.969 -11.271,12.282 -12.018,11.55 -12.718,10.77 -13.368,9.948 -13.964,9.088 -14.507,8.189 -14.99,7.261 -15.415,6.303 -15.779,5.32 -16.082,4.315 -16.318,3.296 -16.495,2.26 -16.603,1.219 -16.648,0.171 -16.625,-0.877 -16.537,-1.923 -16.384,-2.959 -16.166,-3.985 -15.886,-4.995 -15.54,-5.984 -15.136,-6.951 -14.669,-7.891 -14.147,-8.799 -13.566,-9.672 -12.937,-10.507 -12.252,-11.3 -11.521,-12.05 -10.742,-12.75 -9.923,-13.401 -9.063,-14.001 -8.169,-14.542 -7.242,-15.028 -6.286,-15.455 -5.306,-15.82 -4.306,-16.122 -3.286,-16.362 -2.256,-16.536 -1.216,-16.646 -0.17,-16.689 0.874,-16.668 1.919,-16.579 2.951,-16.426 3.975,-16.208 4.982,-15.925 5.969,-15.58 6.935,-15.174 7.871,-14.708 8.774,-14.183 9.647,-13.602 10.48,-12.969 11.271,-12.283 12.02,-11.549 12.718,-10.77 13.368,-9.948 13.964,-9.087 14.506,-8.19 14.989,-7.261 15.416,-6.303 15.778,-5.32 16.082,-4.316 16.321,-3.294 16.494,-2.261 16.604,-1.219 16.646,-0.171 16.625,0.877 16.538,1.923 16.384,2.959 16.166,3.985 15.886,4.994 15.54,5.986 15.136,6.951 14.67,7.891 14.146,8.799 13.567,9.671 12.936,10.507 12.252,11.3 11.521,12.049 10.741,12.75 9.923,13.402 9.064,14 8.169,14.542 7.242,15.028 6.286,15.455 5.307,15.82 4.305,16.122 3.287,16.362 2.255,16.536 1.215,16.646 0.172,16.688 -0.878,16.668 z"
               inkscape:connector-curvature="0"
               style="fill:#3b4d4f" />
          </g>
        </g>
      </g>
      <g
         id="_x22_GAMP_x22__Teil_Für_JOGAMP_1_"
         transform="translate(-4860.6287,664.06475)">
        <g
           id="_x22_G_x22__Kreis_Aussen">
          <g
             id="g3124">
            <polygon
               id="polygon3126"
               points="4688.017,926.264 4682.023,910.682 4677.018,894.754 4673.025,878.544 4670.056,862.115 4668.125,845.532 4667.239,828.859 4667.401,812.165 4668.611,795.514 4670.863,778.971 4674.15,762.603 4678.458,746.473 4683.77,730.646 4690.066,715.183 4697.321,700.147 4705.503,685.595 4714.584,671.586 4724.526,658.175 4735.292,645.416 4746.836,633.356 4759.115,622.046 4772.079,611.53 4785.68,601.849 4799.86,593.04 4814.565,585.139 4829.738,578.178 4845.318,572.182 4861.242,567.178 4877.451,563.184 4893.876,560.214 4910.458,558.283 4927.127,557.396 4943.819,557.558 4946.305,557.739 5303.721,557.739 5298.174,549.818 5280.294,527.419 5261.044,506.188 5240.497,486.208 5218.738,467.557 5195.85,450.309 5171.924,434.533 5147.056,420.289 5121.342,407.637 5094.884,396.623 5067.788,387.293 5040.159,379.683 5012.106,373.823 4983.741,369.736 4955.175,367.438 4926.522,366.939 4897.893,368.24 4869.403,371.336 4841.165,376.216 4813.287,382.858 4785.881,391.239 4759.055,401.325 4732.916,413.074 4707.568,426.442 4683.106,441.375 4659.632,457.815 4637.236,475.696 4616.005,494.95 4596.027,515.498 4577.378,537.259 4560.133,560.15 4544.358,584.077 4530.117,608.949 4517.464,634.666 4506.452,661.126 4497.124,688.226 4489.513,715.858 4483.654,743.913 4479.569,772.28 4477.27,800.849 4476.771,829.505 4478.073,858.137 4481.168,886.63 4486.047,914.873 4492.688,942.753 4501.069,970.161 4511.153,996.989 4522.901,1023.13 4536.269,1048.483 4551.201,1072.946 4567.638,1096.423 4585.518,1118.822 4604.768,1140.052 4625.314,1160.034 4647.073,1178.685 4669.96,1195.932 4693.887,1211.708 4718.755,1225.952 4744.471,1238.605 4770.928,1249.618 4798.025,1258.948 4825.655,1266.558 4853.706,1272.418 4882.071,1276.505 4910.637,1278.803 4939.291,1279.302 4967.918,1278.001 4996.41,1274.905 5024.649,1270.026 5052.526,1263.383 5079.931,1255.002 5106.758,1244.917 5132.896,1233.167 5158.246,1219.799 5182.706,1204.866 5206.181,1188.426 5228.577,1170.545 5249.806,1151.292 5269.786,1130.744 5288.433,1108.981 5305.68,1086.091 5321.455,1062.164 5335.696,1037.292 5348.346,1011.576 5359.36,985.115 5368.69,958.016 5376.298,930.383 5382.158,902.329 5386.245,873.961 5387.512,858.186 5386.77,858.186 5386.77,847.476 5197.411,847.476 5197.178,850.669 5194.925,867.211 5191.638,883.58 5187.33,899.709 5182.018,915.538 5175.722,931 5168.469,946.037 5160.285,960.587 5151.204,974.597 5141.261,988.007 5130.497,1000.767 5118.952,1012.827 5106.674,1024.136 5093.708,1034.653 5080.11,1044.335 5065.929,1053.144 5051.224,1061.044 5036.051,1068.005 5020.471,1074 5004.546,1079.005 4988.339,1083 4971.912,1085.968 4955.331,1087.901 4938.662,1088.787 4921.969,1088.625 4905.32,1087.415 4888.781,1085.162 4872.415,1081.875 4856.288,1077.565 4840.462,1072.252 4825.002,1065.956 4809.969,1058.702 4795.417,1050.516 4781.412,1041.434 4768.003,1031.49 4755.245,1020.724 4743.187,1009.177 4731.879,996.897 4721.365,983.929 4711.684,970.329 4702.876,956.146 4694.977,941.439 "
               style="fill:#3b4d4f" />
          </g>
        </g>
        <g
           id="_x22_G_x22__Kreis_Horizontal_Abrundung">
          <g
             id="g3129">
            <path
               id="path3131"
               d="m 5191.641,367.725 h -263.627 v 186.1 h 25.165 c 0.01,1.157 0.02,2.313 0.051,3.465 h 431.065 c 0.039,-1.454 0.064,-2.911 0.064,-4.373 10e-4,-96.18 -84.403,-175.322 -192.718,-185.192 z"
               inkscape:connector-curvature="0"
               style="fill:#3b4d4f" />
          </g>
        </g>
        <g
           id="_x22_G_x22__Blatt_Horizontal_Teil_2">
          <g
             id="g3134">
            <path
               id="path3136"
               d="m 5206.451,631.857 h -15.101 v 188.666 h 192.919 c 0.057,-1.751 0.091,-3.508 0.091,-5.271 0,-91.749 -76.808,-167.997 -177.909,-183.395 z"
               inkscape:connector-curvature="0"
               style="fill:#3b4d4f" />
          </g>
        </g>
        <g
           id="_x22_G_x22__Blatt_Horizontal_Teil_1">
          <g
             id="g3139">
            <path
               id="path3141"
               d="M 5200.974,820.523 V 631.857 h -192.02 c -0.057,1.751 -0.091,3.508 -0.091,5.271 0,91.773 76.855,168.025 177.996,183.395 h 14.115 z"
               inkscape:connector-curvature="0"
               style="fill:#3b4d4f" />
          </g>
        </g>
        <g
           id="_x22_A_x22__Kreis_Aussen">
          <g
             id="g3144">
            <path
               id="path3146"
               d="m 5657.348,1088.787 -16.691,-0.162 -16.649,-1.21 -16.54,-2.253 -16.365,-3.287 -16.127,-4.31 -15.826,-5.313 -15.459,-6.297 -15.035,-7.254 -14.55,-8.186 -14.007,-9.082 -13.408,-9.944 -12.758,-10.766 -12.058,-11.547 -11.308,-12.28 -10.515,-12.968 -9.681,-13.601 -8.809,-14.183 -7.898,-14.707 -6.961,-15.175 -5.994,-15.582 -5.004,-15.928 -3.993,-16.21 -2.97,-16.43 -1.69,-14.518 h -12.126 l -0.088,9.022 0.306,13.096 -0.037,12.203 0.236,11.465 -3.618,9.304 -7.641,9.475 -8.272,9.017 -8.875,8.52 -9.438,7.993 -9.968,7.433 -10.456,6.845 -10.904,6.227 -11.308,5.586 -11.668,4.924 -11.981,4.242 -12.248,3.542 -12.465,2.829 -12.636,2.105 -9.491,1.021 5.467,14.544 11.748,26.142 13.365,25.353 14.933,24.463 16.438,23.478 17.879,22.398 19.252,21.23 20.546,19.981 21.759,18.651 22.888,17.247 23.926,15.776 24.869,14.243 25.714,12.653 26.457,11.013 27.098,9.33 27.631,7.61 28.051,5.86 28.365,4.087 28.566,2.298 28.653,0.499 1.333,-0.061 h 51.977 v -3.923 l 0.08,-0.01 v -186.657 h -51.502 l -2.519,0.138 z M 6105.456,858.26 v -79.093 l -2.124,-19.556 -4.88,-28.242 -6.643,-27.88 -8.379,-27.408 -10.084,-26.829 -11.749,-26.142 -13.366,-25.352 -14.931,-24.463 -16.438,-23.478 -17.88,-22.398 -19.251,-21.231 -20.547,-19.981 -21.76,-18.651 -22.887,-17.248 -23.926,-15.776 -24.869,-14.244 -25.713,-12.652 -26.458,-11.014 -27.099,-9.33 -27.628,-7.61 -28.052,-5.86 -28.366,-4.087 -28.564,-2.297 -28.655,-0.499 -28.627,1.301 -28.49,3.096 -28.24,4.879 -27.878,6.643 -27.405,8.381 -26.824,10.085 -26.14,11.75 -25.349,13.368 -24.461,14.934 -23.475,16.439 -22.396,17.881 -21.229,19.253 -19.979,20.548 -18.648,21.761 -17.247,22.891 -15.773,23.927 -14.243,24.872 -1.75,3.558 3.021,0.555 12.408,3.034 12.178,3.743 11.896,4.438 11.57,5.115 11.197,5.771 10.779,6.406 10.321,7.015 9.821,7.595 9.281,8.147 8.706,8.665 8.097,9.15 7.454,9.6 6.784,10.009 6.086,10.382 5.362,10.711 4.62,10.999 2.401,6.997 3.421,-10.191 6.296,-15.463 7.253,-15.036 8.185,-14.552 9.081,-14.009 9.941,-13.411 10.765,-12.76 11.544,-12.059 12.279,-11.31 12.965,-10.517 13.601,-9.681 14.18,-8.809 14.706,-7.901 15.171,-6.961 15.581,-5.996 15.925,-5.004 16.208,-3.995 16.427,-2.969 16.581,-1.932 16.668,-0.887 16.693,0.162 16.648,1.21 16.539,2.253 16.367,3.288 16.127,4.308 15.826,5.314 15.459,6.296 15.035,7.255 14.549,8.185 14.006,9.082 13.41,9.944 12.758,10.766 12.057,11.546 11.309,12.281 10.516,12.967 9.68,13.602 8.807,14.182 7.899,14.708 6.96,15.175 5.994,15.582 5.005,15.927 3.993,16.21 2.969,16.429 1.932,16.584 0.887,16.672 -0.059,6.047 h 0.034 v 370.417 l 7.656,-5.361 22.396,-17.881 21.229,-19.254 19.979,-20.548 18.649,-21.763 17.247,-22.89 15.774,-23.928 14.24,-24.871 12.651,-25.717 11.013,-26.461 9.331,-27.099 7.608,-27.633 5.859,-28.055 4.087,-28.367 1.262,-15.701 h -0.738 z"
               inkscape:connector-curvature="0"
               style="fill:#3b4d4f" />
          </g>
        </g>
        <g
           id="_x22_A_x22__Kreis_Vertikal_Abrundung">
          <g
             id="g3149">
            <path
               id="path3151"
               d="m 5920.582,822.729 v 25.165 c -1.157,0.008 -2.313,0.02 -3.464,0.051 v 431.068 c 1.453,0.039 2.91,0.064 4.372,0.064 96.179,0 175.32,-84.405 185.19,-192.721 V 822.729 h -186.098 z"
               inkscape:connector-curvature="0"
               style="fill:#3b4d4f" />
          </g>
        </g>
        <g
           id="_x22_P_x22__Kreis_Aussen">
          <g
             id="g3154">
            <polygon
               id="polygon3156"
               points="6934.84,703.488 6928.198,731.369 6923.32,759.611 6920.224,788.104 6918.924,816.736 6919.12,827.973 6919.12,1021.312 6964.406,1021.312 6972.268,1037.292 6986.509,1062.164 7002.285,1086.091 7019.53,1108.981 7038.179,1130.744 7058.159,1151.292 7079.387,1170.545 7101.784,1188.426 7109.439,1193.788 7109.439,823.371 7109.472,823.371 7109.414,817.324 7110.3,800.652 7112.232,784.068 7115.2,767.639 7119.194,751.429 7124.199,735.502 7130.192,719.92 7137.153,704.745 7145.053,690.037 7153.859,675.855 7163.54,662.253 7174.054,649.286 7185.363,637.005 7197.42,625.459 7210.178,614.693 7223.586,604.749 7237.594,595.667 7252.144,587.482 7267.177,580.227 7282.638,573.931 7298.463,568.617 7314.59,564.309 7330.957,561.021 7347.497,558.768 7364.145,557.558 7380.836,557.396 7397.506,558.283 7414.087,560.214 7430.514,563.184 7446.721,567.178 7462.647,572.182 7478.227,578.178 7493.399,585.139 7508.104,593.04 7522.284,601.849 7535.883,611.53 7548.849,622.046 7561.127,633.356 7572.672,645.416 7583.438,658.175 7593.38,671.586 7602.461,685.595 7610.644,700.147 7617.898,715.183 7624.193,730.646 7629.506,746.473 7633.815,762.603 7637.1,778.971 7639.353,795.514 7640.564,812.165 7640.725,828.859 7639.839,845.532 7637.908,862.115 7634.94,878.544 7630.946,894.754 7625.942,910.682 7619.947,926.264 7612.987,941.439 7605.086,956.146 7596.281,970.329 7586.6,983.929 7576.085,996.897 7564.777,1009.177 7552.719,1020.724 7539.961,1031.49 7526.553,1041.434 7512.547,1050.516 7497.996,1058.702 7482.961,1065.956 7467.501,1072.252 7451.677,1077.565 7435.548,1081.875 7419.183,1085.162 7402.643,1087.415 7385.995,1088.625 7369.303,1088.787 7366.786,1088.653 7315.285,1088.653 7315.285,1275.31 7315.363,1275.319 7315.363,1279.242 7367.34,1279.242 7368.673,1279.302 7397.327,1278.803 7425.893,1276.505 7454.257,1272.418 7482.31,1266.558 7509.94,1258.948 7537.036,1249.618 7563.494,1238.605 7589.208,1225.952 7614.077,1211.708 7638.001,1195.932 7660.891,1178.685 7682.651,1160.034 7703.196,1140.052 7722.446,1118.822 7740.327,1096.423 7756.764,1072.946 7771.696,1048.483 7785.063,1023.13 7796.812,996.989 7806.895,970.161 7815.274,942.753 7821.917,914.873 7826.796,886.63 7829.891,858.137 7831.192,829.505 7830.694,800.849 7828.396,772.28 7824.311,743.913 7818.45,715.858 7810.841,688.226 7801.512,661.126 7790.5,634.666 7777.848,608.949 7763.607,584.077 7747.833,560.15 7730.586,537.259 7711.937,515.498 7691.958,494.95 7670.728,475.696 7648.333,457.815 7624.858,441.375 7600.397,426.442 7575.047,413.074 7548.909,401.325 7522.083,391.239 7494.678,382.858 7466.8,376.216 7438.561,371.336 7410.071,368.24 7381.442,366.939 7352.79,367.438 7324.223,369.736 7295.859,373.823 7267.806,379.683 7240.176,387.293 7213.08,396.623 7186.622,407.637 7160.907,420.289 7136.04,434.533 7112.114,450.309 7089.227,467.557 7067.465,486.208 7046.92,506.188 7027.67,527.419 7009.79,549.818 6993.352,573.295 6978.42,597.758 6965.053,623.11 6953.305,649.252 6943.22,676.081 "
               style="fill:#3b4d4f" />
          </g>
        </g>
        <g
           id="_x22_P_x22__Kreis_Vertikal_Abrundung">
          <g
             id="g3159">
            <path
               id="path3161"
               d="m 6922.316,995.059 v 25.166 c -1.157,0.01 -2.313,0.02 -3.464,0.051 v 431.068 c 1.453,0.039 2.91,0.064 4.372,0.064 96.175,0 175.315,-84.4 185.189,-192.711 V 995.059 h -186.097 z"
               inkscape:connector-curvature="0"
               style="fill:#3b4d4f" />
          </g>
        </g>
        <g
           id="_x22_M_x22__Mittelbalken_Vertikal_Abrundung">
          <g
             id="g3164">
            <path
               id="path3166"
               d="M 6950.546,498.983 V 468.417 H 6562.74 v 13.365 h -101.991 v -12.179 h -393.736 v 35.041 H 5960.277 V 958.596 H 6106.15 V 707.937 l 0,-1.513 0,-9.607 -0.035,-9.886 0.822,-9.635 1.774,-9.593 2.373,-9.462 2.964,-9.294 3.539,-9.09 4.105,-8.85 4.652,-8.574 5.182,-8.266 5.689,-7.924 6.178,-7.551 6.639,-7.148 7.075,-6.718 7.481,-6.26 7.861,-5.778 8.208,-5.272 8.523,-4.748 8.805,-4.203 9.05,-3.642 9.264,-3.067 9.436,-2.479 9.573,-1.881 9.673,-1.277 9.732,-0.667 9.757,-0.055 9.74,0.559 9.687,1.168 9.594,1.774 9.463,2.373 9.296,2.962 9.091,3.541 8.853,4.104 8.575,4.651 8.268,5.181 7.925,5.69 7.553,6.176 7.149,6.638 6.718,7.073 6.261,7.481 5.778,7.859 5.274,8.207 4.748,8.521 4.203,8.804 3.643,9.049 3.067,9.261 2.479,9.434 1.882,9.572 1.08,9.572 -0.124,9.781 0,3.426 h 0.063 V 847.15 c -0.101,0.003 -0.202,0.002 -0.303,0.005 v 431.068 c 1.454,0.039 2.911,0.064 4.373,0.064 96.174,0 175.315,-84.4 185.189,-192.711 V 717.299 l -0.074,-0.658 0.059,-9.926 -0.01,-9.998 0.028,-9.983 0.754,-10.025 1.818,-9.832 2.433,-9.699 3.037,-9.526 3.628,-9.317 4.209,-9.071 4.768,-8.789 5.311,-8.472 5.834,-8.122 6.331,-7.74 6.804,-7.327 7.251,-6.885 7.67,-6.417 8.059,-5.922 8.413,-5.405 8.735,-4.866 9.024,-4.307 9.277,-3.733 9.493,-3.143 9.673,-2.541 9.813,-1.928 9.913,-1.31 9.978,-0.684 10,-0.056 9.985,0.572 9.928,1.197 9.833,1.818 9.7,2.433 9.528,3.037 9.317,3.628 9.072,4.207 8.791,4.768 8.474,5.31 8.123,5.833 7.741,6.33 7.327,6.804 6.888,7.25 6.418,7.668 5.923,8.057 5.405,8.412 4.867,8.735 4.308,9.022 3.733,9.276 3.145,9.492 2.541,9.671 1.929,9.811 -0.024,9.715 -0.057,10.025 0.055,3.668 h 0.146 v 140.546 h 139.15 V 498.983 h -107.924 z"
               inkscape:connector-curvature="0"
               style="fill:#3b4d4f" />
          </g>
        </g>
        <g
           id="_x22_M_x22__Bogen_Kreis_Aussen_1">
          <g
             id="g3169">
            <polygon
               id="polygon3171"
               points="6156.575,382.858 6129.168,391.239 6102.344,401.325 6076.205,413.074 6050.854,426.442 6026.395,441.375 6002.919,457.815 5980.524,475.696 5959.293,494.95 5939.316,515.498 5931.475,524.647 6621.069,524.647 6604.333,506.188 6583.786,486.208 6562.026,467.557 6539.139,450.309 6515.212,434.533 6490.344,420.289 6464.631,407.637 6438.173,396.623 6411.077,387.293 6383.446,379.683 6355.393,373.823 6327.029,369.736 6298.463,367.438 6269.809,366.939 6241.181,368.24 6212.692,371.336 6184.452,376.216 "
               style="fill:#3b4d4f" />
          </g>
        </g>
        <g
           id="_x22_M_x22__Bogen_Kreis_Aussen_2">
          <g
             id="g3174">
            <polygon
               id="polygon3176"
               points="6638.861,382.858 6611.457,391.239 6584.631,401.325 6558.493,413.074 6533.142,426.442 6508.682,441.375 6485.207,457.815 6462.811,475.696 6441.581,494.95 6421.603,515.498 6413.762,524.647 7103.356,524.647 7086.62,506.188 7066.073,486.208 7044.313,467.557 7021.425,450.309 6997.5,434.533 6972.631,420.289 6946.917,407.637 6920.459,396.623 6893.363,387.293 6865.733,379.683 6837.682,373.823 6809.317,369.736 6780.75,367.438 6752.097,366.939 6723.469,368.24 6694.979,371.336 6666.739,376.216 "
               style="fill:#3b4d4f" />
          </g>
        </g>
        <g
           id="Dreieck_JOGAMP_Untertitel">
          <g
             id="g3179">
            <polygon
               id="polygon3181"
               points="4433.213,1327.957 4433.278,1381.228 4479.379,1354.538 "
               clip-rule="evenodd"
               style="fill:#3b4d4f;fill-rule:evenodd" />
          </g>
        </g>
        <g
           id="Java_x2122__Open_graphics_x2C__audio_x2C__media_and_proces_1_">
          <g
             id="Java_x2122__Open_graphics_x2C__audio_x2C__media_and_proces">
            <path
               id="path3185"
               d="m 4511.89,1341.34 c 0,-2.652 0.951,-4.929 2.854,-6.831 1.903,-1.902 4.179,-2.854 6.83,-2.854 v 23.115 c 0,6.38 -2.297,11.808 -6.888,16.284 -4.593,4.478 -10.079,6.716 -16.458,6.716 h -13.604 c 0,-2.536 0.894,-4.698 2.681,-6.485 1.787,-1.786 3.948,-2.68 6.484,-2.68 h 4.438 c 3.805,0 7.033,-1.355 9.685,-4.064 2.652,-2.709 3.978,-5.966 3.978,-9.771 v -13.43 z"
               inkscape:connector-curvature="0"
               style="fill:#3b4d4f" />
            <path
               id="path3187"
               d="m 4572.819,1354.771 v 23 h -23.403 c -6.38,0 -11.865,-2.238 -16.457,-6.716 -4.593,-4.477 -6.889,-9.904 -6.889,-16.284 0,-6.379 2.296,-11.826 6.889,-16.342 4.592,-4.516 10.077,-6.773 16.457,-6.773 6.379,0 11.874,2.258 16.486,6.773 4.611,4.516 6.917,9.963 6.917,16.342 z m -9.8,13.835 v -13.835 c 0,-3.805 -1.319,-7.08 -3.957,-9.828 -2.639,-2.747 -5.863,-4.122 -9.676,-4.122 -3.813,0 -7.037,1.375 -9.676,4.122 -2.638,2.748 -3.956,6.023 -3.956,9.828 0,3.805 1.318,7.062 3.956,9.771 2.639,2.709 5.863,4.064 9.676,4.064 h 13.633 z"
               inkscape:connector-curvature="0"
               style="fill:#3b4d4f" />
            <path
               id="path3189"
               d="m 4577.315,1331.656 c 2.651,0 4.929,0.951 6.831,2.854 1.902,1.903 2.854,4.179 2.854,6.831 v 27.266 h 13.604 c 3.805,0 7.032,-1.355 9.684,-4.064 2.652,-2.709 3.978,-5.966 3.978,-9.771 v -13.431 c 0,-2.652 0.951,-4.929 2.854,-6.831 1.903,-1.902 4.18,-2.854 6.831,-2.854 v 23.115 c 0,6.38 -2.287,11.808 -6.859,16.284 -4.574,4.478 -10.069,6.716 -16.486,6.716 h -23.288 v -46.115 z"
               inkscape:connector-curvature="0"
               style="fill:#3b4d4f" />
            <path
               id="path3191"
               d="m 4675.193,1354.771 v 23 h -23.403 c -6.38,0 -11.865,-2.238 -16.457,-6.716 -4.593,-4.477 -6.889,-9.904 -6.889,-16.284 0,-6.379 2.296,-11.826 6.889,-16.342 4.592,-4.516 10.077,-6.773 16.457,-6.773 6.379,0 11.875,2.258 16.486,6.773 4.611,4.515 6.917,9.963 6.917,16.342 z m -9.8,13.835 v -13.835 c 0,-3.805 -1.319,-7.08 -3.957,-9.828 -2.639,-2.747 -5.863,-4.122 -9.676,-4.122 -3.813,0 -7.037,1.375 -9.676,4.122 -2.638,2.748 -3.956,6.023 -3.956,9.828 0,3.805 1.318,7.062 3.956,9.771 2.639,2.709 5.863,4.064 9.676,4.064 h 13.633 z"
               inkscape:connector-curvature="0"
               style="fill:#3b4d4f" />
            <path
               id="path3193"
               d="m 4694.504,1338.917 v 2.594 h -5.016 v 13.086 h -3.112 v -13.086 h -4.958 v -2.594 h 13.086 z m 16.949,15.679 -0.576,-9.224 c -0.058,-1.21 -0.058,-2.709 -0.115,-4.381 h -0.173 c -0.403,1.384 -0.923,3.229 -1.326,4.67 l -2.824,8.704 h -3.229 l -2.825,-8.936 c -0.288,-1.152 -0.749,-3.055 -1.095,-4.438 h -0.173 c 0,1.441 -0.058,2.94 -0.116,4.381 l -0.576,9.224 h -2.997 l 1.152,-15.68 h 4.67 l 2.709,7.667 c 0.403,1.211 0.635,2.363 1.038,3.978 h 0.058 c 0.403,-1.383 0.749,-2.767 1.095,-3.862 l 2.71,-7.782 h 4.496 l 1.211,15.68 h -3.114 z"
               inkscape:connector-curvature="0"
               style="fill:#3b4d4f" />
            <path
               id="path3195"
               d="m 4764.193,1331.656 c 6.379,0 11.864,2.258 16.457,6.773 4.592,4.516 6.889,9.963 6.889,16.342 0,6.38 -2.297,11.808 -6.889,16.284 -4.593,4.478 -10.078,6.716 -16.457,6.716 -6.38,0 -11.855,-2.238 -16.429,-6.716 -4.573,-4.477 -6.859,-9.904 -6.859,-16.284 0,-6.379 2.286,-11.826 6.859,-16.342 4.573,-4.516 10.049,-6.773 16.429,-6.773 z m 0,9.165 c -3.805,0 -7.023,1.375 -9.655,4.122 -2.633,2.748 -3.948,6.023 -3.948,9.828 0,3.805 1.315,7.062 3.948,9.771 2.632,2.709 5.851,4.064 9.655,4.064 3.804,0 7.032,-1.355 9.684,-4.064 2.652,-2.709 3.978,-5.966 3.978,-9.771 0,-3.805 -1.325,-7.08 -3.978,-9.828 -2.652,-2.747 -5.879,-4.122 -9.684,-4.122 z"
               inkscape:connector-curvature="0"
               style="fill:#3b4d4f" />
            <path
               id="path3197"
               d="m 4798.116,1386.447 c -1.902,1.902 -4.18,2.853 -6.831,2.853 v -34.528 c 0,-6.379 2.296,-11.826 6.889,-16.342 4.592,-4.516 10.077,-6.773 16.457,-6.773 6.379,0 11.874,2.258 16.486,6.773 4.611,4.516 6.917,9.963 6.917,16.342 0,6.38 -2.297,11.808 -6.889,16.284 -4.593,4.478 -10.098,6.716 -16.515,6.716 h -13.661 v 1.845 c 0,2.65 -0.951,4.927 -2.853,6.83 z m 16.514,-17.841 c 3.805,0 7.022,-1.355 9.655,-4.064 2.632,-2.709 3.948,-5.966 3.948,-9.771 0,-3.805 -1.316,-7.08 -3.948,-9.828 -2.633,-2.747 -5.851,-4.122 -9.655,-4.122 -3.804,0 -7.023,1.375 -9.655,4.122 -2.633,2.748 -3.948,6.023 -3.948,9.828 v 13.835 h 13.603 z"
               inkscape:connector-curvature="0"
               style="fill:#3b4d4f" />
            <path
               id="path3199"
               d="m 4865.068,1377.771 c -6.38,0 -11.855,-2.238 -16.429,-6.716 -4.573,-4.477 -6.859,-9.904 -6.859,-16.284 0,-6.379 2.286,-11.826 6.859,-16.342 4.573,-4.516 10.049,-6.773 16.429,-6.773 h 13.661 c 0,2.536 -0.903,4.698 -2.709,6.485 -1.807,1.786 -3.978,2.68 -6.514,2.68 h -4.438 c -3.767,0 -6.975,1.384 -9.627,4.15 -2.651,2.768 -3.977,6.034 -3.977,9.8 0,3.767 1.325,7.014 3.977,9.742 2.652,2.729 5.86,4.093 9.627,4.093 h 4.438 c 2.536,0 4.707,0.894 6.514,2.68 1.806,1.787 2.709,3.949 2.709,6.485 h -13.661 z m -3.229,-27.669 h 16.89 c 0,2.553 -0.903,4.719 -2.709,6.497 -1.807,1.779 -3.978,2.668 -6.514,2.668 h -7.667 c -1.268,0 -2.344,-0.435 -3.228,-1.305 -0.885,-0.87 -1.326,-1.943 -1.326,-3.22 0,-1.314 0.433,-2.416 1.297,-3.306 0.866,-0.89 1.951,-1.334 3.257,-1.334 z"
               inkscape:connector-curvature="0"
               style="fill:#3b4d4f" />
            <path
               id="path3201"
               d="m 4918.676,1354.771 c 0,-3.766 -1.325,-7.032 -3.978,-9.8 -2.651,-2.767 -5.86,-4.15 -9.626,-4.15 -3.805,0 -7.032,1.375 -9.685,4.122 -2.651,2.748 -3.977,6.023 -3.977,9.828 v 13.315 c 0,2.652 -0.951,4.929 -2.854,6.831 -1.903,1.902 -4.18,2.854 -6.831,2.854 v -23 c 0,-6.379 2.286,-11.826 6.859,-16.342 4.573,-4.516 10.068,-6.773 16.486,-6.773 6.379,0 11.854,2.258 16.429,6.773 4.572,4.516 6.859,9.963 6.859,16.342 v 23 c -2.651,0 -4.929,-0.951 -6.831,-2.854 -1.902,-1.903 -2.854,-4.179 -2.854,-6.831 v -13.315 z"
               inkscape:connector-curvature="0"
               style="fill:#3b4d4f" />
            <path
               id="path3203"
               d="m 5005.199,1378.75 c 0,6.418 -2.297,11.855 -6.889,16.313 -4.593,4.458 -10.098,6.687 -16.515,6.687 h -13.604 c 0,-2.536 0.894,-4.697 2.68,-6.484 1.787,-1.787 3.949,-2.681 6.485,-2.681 h 4.438 c 3.805,0 7.041,-1.354 9.713,-4.063 2.671,-2.71 4.006,-5.967 4.006,-9.771 v -0.979 h -13.776 c -6.38,0 -11.865,-2.238 -16.457,-6.716 -4.593,-4.477 -6.889,-9.904 -6.889,-16.284 0,-6.379 2.299,-11.826 6.896,-16.342 4.597,-4.516 10.091,-6.773 16.478,-6.773 6.387,0 11.89,2.258 16.506,6.773 4.617,4.516 6.927,9.963 6.927,16.342 v 23.978 z m -9.858,-10.144 v -13.835 c 0,-3.805 -1.319,-7.08 -3.957,-9.828 -2.639,-2.747 -5.863,-4.122 -9.676,-4.122 -3.813,0 -7.037,1.375 -9.676,4.122 -2.638,2.748 -3.956,6.023 -3.956,9.828 0,3.805 1.318,7.062 3.956,9.771 2.639,2.709 5.863,4.064 9.676,4.064 h 13.633 z"
               inkscape:connector-curvature="0"
               style="fill:#3b4d4f" />
            <path
               id="path3205"
               d="m 5020.243,1368.086 c 0,2.652 -0.951,4.929 -2.854,6.831 -1.903,1.902 -4.179,2.854 -6.831,2.854 v -23.115 c 0,-6.379 2.296,-11.807 6.889,-16.284 4.592,-4.477 10.078,-6.716 16.457,-6.716 h 13.604 c 0,2.536 -0.894,4.698 -2.681,6.485 -1.787,1.786 -3.948,2.68 -6.485,2.68 h -4.438 c -3.804,0 -7.032,1.355 -9.684,4.064 -2.652,2.709 -3.978,5.966 -3.978,9.771 v 13.43 z"
               inkscape:connector-curvature="0"
               style="fill:#3b4d4f" />
            <path
               id="path3207"
               d="m 5096.159,1354.771 v 23 h -23.403 c -6.38,0 -11.865,-2.238 -16.457,-6.716 -4.593,-4.477 -6.889,-9.904 -6.889,-16.284 0,-6.379 2.296,-11.826 6.889,-16.342 4.592,-4.516 10.077,-6.773 16.457,-6.773 6.379,0 11.874,2.258 16.486,6.773 4.611,4.516 6.917,9.963 6.917,16.342 z m -9.8,13.835 v -13.835 c 0,-3.805 -1.319,-7.08 -3.957,-9.828 -2.639,-2.747 -5.863,-4.122 -9.676,-4.122 -3.813,0 -7.037,1.375 -9.676,4.122 -2.638,2.748 -3.956,6.023 -3.956,9.828 0,3.805 1.318,7.062 3.956,9.771 2.639,2.709 5.863,4.064 9.676,4.064 h 13.633 z"
               inkscape:connector-curvature="0"
               style="fill:#3b4d4f" />
            <path
               id="path3209"
               d="m 5107.485,1386.447 c -1.902,1.902 -4.18,2.853 -6.831,2.853 v -34.528 c 0,-6.379 2.296,-11.826 6.889,-16.342 4.592,-4.516 10.077,-6.773 16.457,-6.773 6.379,0 11.874,2.258 16.486,6.773 4.611,4.516 6.917,9.963 6.917,16.342 0,6.38 -2.297,11.808 -6.889,16.284 -4.593,4.478 -10.098,6.716 -16.515,6.716 h -13.661 v 1.845 c 0,2.65 -0.951,4.927 -2.853,6.83 z M 5124,1368.606 c 3.805,0 7.022,-1.355 9.655,-4.064 2.632,-2.709 3.948,-5.966 3.948,-9.771 0,-3.805 -1.316,-7.08 -3.948,-9.828 -2.633,-2.747 -5.851,-4.122 -9.655,-4.122 -3.804,0 -7.023,1.375 -9.655,4.122 -2.633,2.748 -3.948,6.023 -3.948,9.828 v 13.835 H 5124 z"
               inkscape:connector-curvature="0"
               style="fill:#3b4d4f" />
            <path
               id="path3211"
               d="m 5174.496,1331.656 c 6.379,0 11.854,2.258 16.429,6.773 4.572,4.516 6.859,9.963 6.859,16.342 v 23 c -2.651,0 -4.929,-0.951 -6.831,-2.854 -1.902,-1.903 -2.854,-4.179 -2.854,-6.831 v -13.315 c 0,-3.766 -1.325,-7.032 -3.978,-9.8 -2.651,-2.767 -5.86,-4.15 -9.626,-4.15 -3.805,0 -7.032,1.375 -9.685,4.122 -2.651,2.748 -3.977,6.023 -3.977,9.828 v 13.315 c 0,2.652 -0.951,4.929 -2.854,6.831 -1.903,1.902 -4.18,2.854 -6.831,2.854 v -57.586 c 2.651,0 4.929,0.951 6.831,2.853 1.902,1.902 2.854,4.18 2.854,6.831 v 5.995 c 3.037,-2.805 7.59,-4.208 13.663,-4.208 z"
               inkscape:connector-curvature="0"
               style="fill:#3b4d4f" />
            <path
               id="path3213"
               d="m 5211.963,1377.771 c -2.652,0 -4.929,-0.951 -6.831,-2.854 -1.902,-1.903 -2.854,-4.179 -2.854,-6.831 v -36.431 c 2.651,0 4.929,0.951 6.831,2.854 1.902,1.903 2.854,4.179 2.854,6.831 v 36.431 z"
               inkscape:connector-curvature="0"
               style="fill:#3b4d4f" />
            <path
               id="path3215"
               d="m 5240.035,1377.771 c -6.38,0 -11.855,-2.238 -16.429,-6.716 -4.573,-4.477 -6.859,-9.904 -6.859,-16.284 0,-6.379 2.286,-11.826 6.859,-16.342 4.573,-4.516 10.049,-6.773 16.429,-6.773 h 13.604 c 0,2.536 -0.894,4.698 -2.68,6.485 -1.787,1.786 -3.949,2.68 -6.485,2.68 h -4.438 c -3.805,0 -7.043,1.375 -9.713,4.122 -2.672,2.748 -4.006,6.023 -4.006,9.828 0,3.805 1.334,7.062 4.006,9.771 2.67,2.709 5.908,4.064 9.713,4.064 h 4.438 c 2.536,0 4.698,0.894 6.485,2.68 1.786,1.787 2.68,3.949 2.68,6.485 h -13.604 z"
               inkscape:connector-curvature="0"
               style="fill:#3b4d4f" />
            <path
               id="path3217"
               d="m 5277.502,1349.699 c 0,-4.995 1.796,-9.252 5.39,-12.769 3.593,-3.517 7.906,-5.274 12.941,-5.274 h 13.258 c 0,2.575 -0.903,4.747 -2.709,6.514 -1.807,1.769 -3.997,2.651 -6.571,2.651 h -2.018 c -2.96,0 -5.486,1.066 -7.58,3.199 -2.096,2.133 -3.142,4.698 -3.142,7.696 v 8.012 c 0,4.996 -1.787,9.252 -5.361,12.769 -3.573,3.517 -7.878,5.274 -12.912,5.274 h -13.258 c 0,-2.536 0.894,-4.698 2.681,-6.485 1.787,-1.786 3.948,-2.68 6.484,-2.68 h 2.075 c 2.998,0 5.534,-1.066 7.609,-3.199 2.075,-2.133 3.112,-4.698 3.112,-7.696 v -8.012 z"
               inkscape:connector-curvature="0"
               style="fill:#3b4d4f" />
            <path
               id="path3219"
               d="m 5321.197,1385.726 c -2.652,0 -4.929,-0.951 -6.831,-2.854 -1.902,-1.903 -2.854,-4.18 -2.854,-6.831 v -11.298 c 2.651,0 4.929,0.951 6.831,2.854 1.902,1.903 2.854,4.179 2.854,6.83 v 11.299 z"
               inkscape:connector-curvature="0"
               style="fill:#3b4d4f" />
            <path
               id="path3221"
               d="m 5398.264,1354.771 v 23 h -23.403 c -6.38,0 -11.865,-2.238 -16.457,-6.716 -4.593,-4.477 -6.889,-9.904 -6.889,-16.284 0,-6.379 2.296,-11.826 6.889,-16.342 4.592,-4.516 10.077,-6.773 16.457,-6.773 6.379,0 11.874,2.258 16.486,6.773 4.611,4.516 6.917,9.963 6.917,16.342 z m -9.8,13.835 v -13.835 c 0,-3.805 -1.319,-7.08 -3.957,-9.828 -2.639,-2.747 -5.863,-4.122 -9.676,-4.122 -3.813,0 -7.037,1.375 -9.676,4.122 -2.638,2.748 -3.956,6.023 -3.956,9.828 0,3.805 1.318,7.062 3.956,9.771 2.639,2.709 5.863,4.064 9.676,4.064 h 13.633 z"
               inkscape:connector-curvature="0"
               style="fill:#3b4d4f" />
            <path
               id="path3223"
               d="m 5439.709,1341.34 c 0,-2.652 0.951,-4.929 2.854,-6.831 1.903,-1.902 4.18,-2.854 6.831,-2.854 v 23 c 0,6.38 -2.287,11.827 -6.859,16.342 -4.574,4.517 -10.05,6.773 -16.429,6.773 -6.418,0 -11.913,-2.257 -16.486,-6.773 -4.573,-4.515 -6.859,-9.962 -6.859,-16.342 v -23 c 2.651,0 4.929,0.951 6.831,2.854 1.902,1.903 2.854,4.179 2.854,6.831 v 13.315 c 0,3.805 1.325,7.081 3.977,9.828 2.652,2.748 5.88,4.122 9.685,4.122 3.766,0 6.975,-1.384 9.626,-4.15 2.652,-2.768 3.978,-6.033 3.978,-9.8 v -13.315 z"
               inkscape:connector-curvature="0"
               style="fill:#3b4d4f" />
            <path
               id="path3225"
               d="m 5460.778,1338.429 c 4.592,-4.516 10.077,-6.773 16.457,-6.773 6.379,0 11.875,2.258 16.486,6.773 4.611,4.515 6.917,9.963 6.917,16.342 0,6.38 -2.297,11.808 -6.889,16.284 -4.593,4.478 -10.098,6.716 -16.515,6.716 h -23.346 v -23 c 0,-6.379 2.297,-11.826 6.89,-16.342 z m 16.457,30.177 c 3.805,0 7.022,-1.355 9.655,-4.064 2.632,-2.709 3.948,-5.966 3.948,-9.771 0,-3.805 -1.316,-7.08 -3.948,-9.828 -2.633,-2.747 -5.851,-4.122 -9.655,-4.122 -3.804,0 -7.023,1.375 -9.655,4.122 -2.633,2.748 -3.948,6.023 -3.948,9.828 v 13.835 h 13.603 z"
               inkscape:connector-curvature="0"
               style="fill:#3b4d4f" />
            <path
               id="path3227"
               d="m 5514.069,1377.771 c -2.652,0 -4.929,-0.951 -6.831,-2.854 -1.902,-1.903 -2.854,-4.179 -2.854,-6.831 v -36.431 c 2.651,0 4.929,0.951 6.831,2.854 1.902,1.903 2.854,4.179 2.854,6.831 v 36.431 z"
               inkscape:connector-curvature="0"
               style="fill:#3b4d4f" />
            <path
               id="path3229"
               d="m 5542.141,1331.656 c 6.379,0 11.864,2.258 16.457,6.773 4.592,4.516 6.889,9.963 6.889,16.342 0,6.38 -2.297,11.808 -6.889,16.284 -4.593,4.478 -10.078,6.716 -16.457,6.716 -6.38,0 -11.855,-2.238 -16.429,-6.716 -4.573,-4.477 -6.859,-9.904 -6.859,-16.284 0,-6.379 2.286,-11.826 6.859,-16.342 4.573,-4.516 10.049,-6.773 16.429,-6.773 z m 0,9.165 c -3.805,0 -7.023,1.375 -9.655,4.122 -2.633,2.748 -3.948,6.023 -3.948,9.828 0,3.805 1.315,7.062 3.948,9.771 2.632,2.709 5.851,4.064 9.655,4.064 3.804,0 7.032,-1.355 9.684,-4.064 2.652,-2.709 3.978,-5.966 3.978,-9.771 0,-3.805 -1.325,-7.08 -3.978,-9.828 -2.652,-2.747 -5.879,-4.122 -9.684,-4.122 z"
               inkscape:connector-curvature="0"
               style="fill:#3b4d4f" />
            <path
               id="path3231"
               d="m 5578.917,1385.726 c -2.652,0 -4.929,-0.951 -6.831,-2.854 -1.902,-1.903 -2.854,-4.18 -2.854,-6.831 v -11.298 c 2.651,0 4.929,0.951 6.831,2.854 1.902,1.903 2.854,4.179 2.854,6.83 v 11.299 z"
               inkscape:connector-curvature="0"
               style="fill:#3b4d4f" />
            <path
               id="path3233"
               d="m 5655.871,1354.771 v 23 c -2.651,0 -4.929,-0.951 -6.831,-2.854 -1.902,-1.903 -2.854,-4.179 -2.854,-6.831 v -13.315 c 0,-3.805 -1.316,-7.08 -3.948,-9.828 -2.633,-2.747 -5.851,-4.122 -9.655,-4.122 -3.804,0 -7.032,1.375 -9.685,4.122 -2.651,2.748 -3.977,6.023 -3.977,9.828 v 13.315 c 0,2.69 -0.942,4.978 -2.825,6.86 -1.883,1.882 -4.17,2.824 -6.859,2.824 v -23 c 0,-6.379 2.296,-11.826 6.889,-16.342 4.592,-4.516 10.077,-6.773 16.457,-6.773 3.611,0 7.032,0.798 10.261,2.393 3.228,1.595 5.975,3.814 8.243,6.657 2.19,-2.805 4.918,-5.015 8.185,-6.629 3.267,-1.614 6.688,-2.421 10.261,-2.421 6.379,0 11.854,2.258 16.429,6.773 4.572,4.516 6.859,9.963 6.859,16.342 v 23 c -2.651,0 -4.929,-0.951 -6.831,-2.854 -1.901,-1.902 -2.853,-4.179 -2.853,-6.831 v -13.315 c 0,-3.805 -1.317,-7.08 -3.949,-9.828 -2.633,-2.747 -5.851,-4.122 -9.655,-4.122 -3.804,0 -7.032,1.375 -9.684,4.122 -2.653,2.749 -3.978,6.024 -3.978,9.829 z"
               inkscape:connector-curvature="0"
               style="fill:#3b4d4f" />
            <path
               id="path3235"
               d="m 5720.604,1377.771 c -6.38,0 -11.855,-2.238 -16.429,-6.716 -4.573,-4.477 -6.859,-9.904 -6.859,-16.284 0,-6.379 2.286,-11.826 6.859,-16.342 4.573,-4.516 10.049,-6.773 16.429,-6.773 h 13.661 c 0,2.536 -0.903,4.698 -2.709,6.485 -1.807,1.786 -3.978,2.68 -6.514,2.68 h -4.438 c -3.767,0 -6.975,1.384 -9.627,4.15 -2.651,2.768 -3.977,6.034 -3.977,9.8 0,3.767 1.325,7.014 3.977,9.742 2.652,2.729 5.86,4.093 9.627,4.093 h 4.438 c 2.536,0 4.707,0.894 6.514,2.68 1.806,1.787 2.709,3.949 2.709,6.485 h -13.661 z m -3.229,-27.669 h 16.89 c 0,2.553 -0.903,4.719 -2.709,6.497 -1.807,1.779 -3.978,2.668 -6.514,2.668 h -7.667 c -1.268,0 -2.344,-0.435 -3.228,-1.305 -0.885,-0.87 -1.326,-1.943 -1.326,-3.22 0,-1.314 0.433,-2.416 1.297,-3.306 0.866,-0.89 1.951,-1.334 3.257,-1.334 z"
               inkscape:connector-curvature="0"
               style="fill:#3b4d4f" />
            <path
               id="path3237"
               d="m 5744.151,1338.429 c 4.592,-4.516 10.077,-6.773 16.457,-6.773 6.379,0 11.875,2.258 16.486,6.773 4.611,4.515 6.917,9.963 6.917,16.342 0,6.38 -2.297,11.808 -6.889,16.284 -4.593,4.478 -10.098,6.716 -16.515,6.716 h -23.346 v -23 c 10e-4,-6.379 2.297,-11.826 6.89,-16.342 z m 16.457,30.177 c 3.805,0 7.022,-1.355 9.655,-4.064 2.632,-2.709 3.948,-5.966 3.948,-9.771 0,-3.805 -1.316,-7.08 -3.948,-9.828 -2.633,-2.747 -5.851,-4.122 -9.655,-4.122 -3.804,0 -7.023,1.375 -9.655,4.122 -2.633,2.748 -3.948,6.023 -3.948,9.828 v 13.835 h 13.603 z"
               inkscape:connector-curvature="0"
               style="fill:#3b4d4f" />
            <path
               id="path3239"
               d="m 5797.442,1377.771 c -2.652,0 -4.929,-0.951 -6.831,-2.854 -1.902,-1.903 -2.854,-4.179 -2.854,-6.831 v -36.431 c 2.651,0 4.929,0.951 6.831,2.854 1.902,1.903 2.854,4.179 2.854,6.831 v 36.431 z"
               inkscape:connector-curvature="0"
               style="fill:#3b4d4f" />
            <path
               id="path3241"
               d="m 5848.974,1354.771 v 23 h -23.403 c -6.38,0 -11.865,-2.238 -16.457,-6.716 -4.593,-4.477 -6.889,-9.904 -6.889,-16.284 0,-6.379 2.296,-11.826 6.889,-16.342 4.592,-4.516 10.077,-6.773 16.457,-6.773 6.379,0 11.875,2.258 16.486,6.773 4.611,4.515 6.917,9.963 6.917,16.342 z m -9.8,13.835 v -13.835 c 0,-3.805 -1.319,-7.08 -3.957,-9.828 -2.639,-2.747 -5.863,-4.122 -9.676,-4.122 -3.813,0 -7.037,1.375 -9.676,4.122 -2.638,2.748 -3.956,6.023 -3.956,9.828 0,3.805 1.318,7.062 3.956,9.771 2.639,2.709 5.863,4.064 9.676,4.064 h 13.633 z"
               inkscape:connector-curvature="0"
               style="fill:#3b4d4f" />
            <path
               id="path3243"
               d="m 5925.754,1354.771 v 23 h -23.403 c -6.38,0 -11.865,-2.238 -16.457,-6.716 -4.593,-4.477 -6.889,-9.904 -6.889,-16.284 0,-6.379 2.296,-11.826 6.889,-16.342 4.592,-4.516 10.077,-6.773 16.457,-6.773 6.379,0 11.874,2.258 16.486,6.773 4.612,4.516 6.917,9.963 6.917,16.342 z m -9.799,13.835 v -13.835 c 0,-3.805 -1.319,-7.08 -3.957,-9.828 -2.639,-2.747 -5.863,-4.122 -9.676,-4.122 -3.813,0 -7.037,1.375 -9.676,4.122 -2.638,2.748 -3.956,6.023 -3.956,9.828 0,3.805 1.318,7.062 3.956,9.771 2.639,2.709 5.863,4.064 9.676,4.064 h 13.633 z"
               inkscape:connector-curvature="0"
               style="fill:#3b4d4f" />
            <path
               id="path3245"
               d="m 5967.2,1354.771 c 0,-3.766 -1.325,-7.032 -3.978,-9.8 -2.651,-2.767 -5.86,-4.15 -9.626,-4.15 -3.805,0 -7.032,1.375 -9.685,4.122 -2.651,2.748 -3.977,6.023 -3.977,9.828 v 13.315 c 0,2.652 -0.951,4.929 -2.854,6.831 -1.903,1.902 -4.18,2.854 -6.831,2.854 v -23 c 0,-6.379 2.286,-11.826 6.859,-16.342 4.573,-4.516 10.068,-6.773 16.486,-6.773 6.379,0 11.854,2.258 16.429,6.773 4.572,4.516 6.859,9.963 6.859,16.342 v 23 c -2.651,0 -4.929,-0.951 -6.831,-2.854 -1.902,-1.903 -2.854,-4.179 -2.854,-6.831 v -13.315 z"
               inkscape:connector-curvature="0"
               style="fill:#3b4d4f" />
            <path
               id="path3247"
               d="m 5988.268,1338.429 c 4.592,-4.516 10.077,-6.773 16.457,-6.773 6.379,0 11.875,2.258 16.486,6.773 4.611,4.515 6.917,9.963 6.917,16.342 0,6.38 -2.297,11.808 -6.889,16.284 -4.593,4.478 -10.098,6.716 -16.515,6.716 h -23.346 v -23 c 0,-6.379 2.297,-11.826 6.89,-16.342 z m 16.457,30.177 c 3.805,0 7.022,-1.355 9.655,-4.064 2.632,-2.709 3.948,-5.966 3.948,-9.771 0,-3.805 -1.316,-7.08 -3.948,-9.828 -2.633,-2.747 -5.851,-4.122 -9.655,-4.122 -3.804,0 -7.023,1.375 -9.655,4.122 -2.633,2.748 -3.948,6.023 -3.948,9.828 v 13.835 h 13.603 z"
               inkscape:connector-curvature="0"
               style="fill:#3b4d4f" />
            <path
               id="path3249"
               d="m 6064.242,1386.447 c -1.902,1.902 -4.18,2.853 -6.831,2.853 v -34.528 c 0,-6.379 2.296,-11.826 6.889,-16.342 4.592,-4.516 10.077,-6.773 16.457,-6.773 6.379,0 11.875,2.258 16.486,6.773 4.611,4.515 6.917,9.963 6.917,16.342 0,6.38 -2.297,11.808 -6.889,16.284 -4.593,4.478 -10.098,6.716 -16.515,6.716 h -13.661 v 1.845 c 0,2.65 -0.951,4.927 -2.853,6.83 z m 16.514,-17.841 c 3.805,0 7.022,-1.355 9.655,-4.064 2.632,-2.709 3.948,-5.966 3.948,-9.771 0,-3.805 -1.316,-7.08 -3.948,-9.828 -2.633,-2.747 -5.851,-4.122 -9.655,-4.122 -3.804,0 -7.023,1.375 -9.655,4.122 -2.633,2.748 -3.948,6.023 -3.948,9.828 v 13.835 h 13.603 z"
               inkscape:connector-curvature="0"
               style="fill:#3b4d4f" />
            <path
               id="path3251"
               d="m 6118.512,1368.086 c 0,2.652 -0.951,4.929 -2.854,6.831 -1.903,1.902 -4.179,2.854 -6.831,2.854 v -23.115 c 0,-6.379 2.296,-11.807 6.889,-16.284 4.592,-4.477 10.078,-6.716 16.457,-6.716 h 13.604 c 0,2.536 -0.894,4.698 -2.681,6.485 -1.787,1.786 -3.948,2.68 -6.485,2.68 h -4.438 c -3.804,0 -7.032,1.355 -9.684,4.064 -2.652,2.709 -3.978,5.966 -3.978,9.771 v 13.43 z"
               inkscape:connector-curvature="0"
               style="fill:#3b4d4f" />
            <path
               id="path3253"
               d="m 6170.967,1331.656 c 6.379,0 11.864,2.258 16.457,6.773 4.592,4.516 6.889,9.963 6.889,16.342 0,6.38 -2.297,11.808 -6.889,16.284 -4.593,4.478 -10.078,6.716 -16.457,6.716 -6.38,0 -11.855,-2.238 -16.429,-6.716 -4.573,-4.477 -6.859,-9.904 -6.859,-16.284 0,-6.379 2.286,-11.826 6.859,-16.342 4.573,-4.516 10.049,-6.773 16.429,-6.773 z m 0,9.165 c -3.805,0 -7.023,1.375 -9.655,4.122 -2.633,2.748 -3.948,6.023 -3.948,9.828 0,3.805 1.315,7.062 3.948,9.771 2.632,2.709 5.851,4.064 9.655,4.064 3.804,0 7.032,-1.355 9.684,-4.064 2.652,-2.709 3.978,-5.966 3.978,-9.771 0,-3.805 -1.325,-7.08 -3.978,-9.828 -2.651,-2.747 -5.879,-4.122 -9.684,-4.122 z"
               inkscape:connector-curvature="0"
               style="fill:#3b4d4f" />
            <path
               id="path3255"
               d="m 6221.347,1377.771 c -6.38,0 -11.855,-2.238 -16.429,-6.716 -4.573,-4.477 -6.859,-9.904 -6.859,-16.284 0,-6.379 2.286,-11.826 6.859,-16.342 4.573,-4.516 10.049,-6.773 16.429,-6.773 h 13.604 c 0,2.536 -0.894,4.698 -2.68,6.485 -1.787,1.786 -3.949,2.68 -6.485,2.68 h -4.438 c -3.805,0 -7.043,1.375 -9.713,4.122 -2.672,2.748 -4.006,6.023 -4.006,9.828 0,3.805 1.334,7.062 4.006,9.771 2.67,2.709 5.908,4.064 9.713,4.064 h 4.438 c 2.536,0 4.698,0.894 6.485,2.68 1.786,1.787 2.68,3.949 2.68,6.485 h -13.604 z"
               inkscape:connector-curvature="0"
               style="fill:#3b4d4f" />
            <path
               id="path3257"
               d="m 6260.141,1377.771 c -6.38,0 -11.855,-2.238 -16.429,-6.716 -4.573,-4.477 -6.859,-9.904 -6.859,-16.284 0,-6.379 2.286,-11.826 6.859,-16.342 4.573,-4.516 10.049,-6.773 16.429,-6.773 h 13.661 c 0,2.536 -0.903,4.698 -2.709,6.485 -1.807,1.786 -3.978,2.68 -6.514,2.68 h -4.438 c -3.767,0 -6.975,1.384 -9.627,4.15 -2.651,2.768 -3.977,6.034 -3.977,9.8 0,3.767 1.325,7.014 3.977,9.742 2.652,2.729 5.86,4.093 9.627,4.093 h 4.438 c 2.536,0 4.707,0.894 6.514,2.68 1.806,1.787 2.709,3.949 2.709,6.485 h -13.661 z m -3.228,-27.669 h 16.89 c 0,2.553 -0.903,4.719 -2.709,6.497 -1.807,1.779 -3.978,2.668 -6.514,2.668 h -7.667 c -1.268,0 -2.344,-0.435 -3.228,-1.305 -0.885,-0.87 -1.326,-1.943 -1.326,-3.22 0,-1.314 0.433,-2.416 1.297,-3.306 0.865,-0.89 1.95,-1.334 3.257,-1.334 z"
               inkscape:connector-curvature="0"
               style="fill:#3b4d4f" />
            <path
               id="path3259"
               d="m 6298.761,1349.699 c 0,-4.995 1.796,-9.252 5.39,-12.769 3.593,-3.517 7.906,-5.274 12.941,-5.274 h 13.258 c 0,2.575 -0.903,4.747 -2.709,6.514 -1.807,1.769 -3.997,2.651 -6.571,2.651 h -2.018 c -2.96,0 -5.486,1.066 -7.58,3.199 -2.096,2.133 -3.142,4.698 -3.142,7.696 v 8.012 c 0,4.996 -1.787,9.252 -5.361,12.769 -3.573,3.517 -7.878,5.274 -12.912,5.274 h -13.258 c 0,-2.536 0.894,-4.698 2.681,-6.485 1.787,-1.786 3.948,-2.68 6.484,-2.68 h 2.075 c 2.998,0 5.534,-1.066 7.609,-3.199 2.075,-2.133 3.112,-4.698 3.112,-7.696 v -8.012 z"
               inkscape:connector-curvature="0"
               style="fill:#3b4d4f" />
          </g>
        </g>
        <g
           id="sing_libraries">
          <g
             id="g3262">
            <path
               id="path3264"
               d="m 6333.357,1349.699 c 0,-4.995 1.796,-9.252 5.39,-12.769 3.593,-3.517 7.906,-5.274 12.941,-5.274 h 13.258 c 0,2.575 -0.903,4.747 -2.709,6.514 -1.807,1.769 -3.997,2.651 -6.571,2.651 h -2.018 c -2.96,0 -5.486,1.066 -7.58,3.199 -2.096,2.133 -3.142,4.698 -3.142,7.696 v 8.012 c 0,4.996 -1.787,9.252 -5.361,12.769 -3.573,3.517 -7.878,5.274 -12.912,5.274 h -13.258 c 0,-2.536 0.894,-4.698 2.681,-6.485 1.787,-1.786 3.948,-2.68 6.484,-2.68 h 2.075 c 2.998,0 5.534,-1.066 7.609,-3.199 2.075,-2.133 3.112,-4.698 3.112,-7.696 v -8.012 z"
               inkscape:connector-curvature="0"
               style="fill:#3b4d4f" />
            <path
               id="path3266"
               d="m 6377.051,1377.771 c -2.652,0 -4.929,-0.951 -6.831,-2.854 -1.902,-1.903 -2.854,-4.179 -2.854,-6.831 v -36.431 c 2.651,0 4.929,0.951 6.831,2.854 1.902,1.903 2.854,4.179 2.854,6.831 v 36.431 z"
               inkscape:connector-curvature="0"
               style="fill:#3b4d4f" />
            <path
               id="path3268"
               d="m 6418.784,1354.771 c 0,-3.766 -1.325,-7.032 -3.978,-9.8 -2.651,-2.767 -5.86,-4.15 -9.626,-4.15 -3.805,0 -7.032,1.375 -9.685,4.122 -2.651,2.748 -3.977,6.023 -3.977,9.828 v 13.315 c 0,2.652 -0.951,4.929 -2.854,6.831 -1.903,1.902 -4.18,2.854 -6.831,2.854 v -23 c 0,-6.379 2.286,-11.826 6.859,-16.342 4.573,-4.516 10.068,-6.773 16.486,-6.773 6.379,0 11.854,2.258 16.429,6.773 4.572,4.516 6.859,9.963 6.859,16.342 v 23 c -2.651,0 -4.929,-0.951 -6.831,-2.854 -1.902,-1.903 -2.854,-4.179 -2.854,-6.831 v -13.315 z"
               inkscape:connector-curvature="0"
               style="fill:#3b4d4f" />
            <path
               id="path3270"
               d="m 6479.771,1378.75 c 0,6.418 -2.297,11.855 -6.889,16.313 -4.593,4.458 -10.098,6.687 -16.515,6.687 h -13.604 c 0,-2.536 0.894,-4.697 2.68,-6.484 1.787,-1.787 3.949,-2.681 6.485,-2.681 h 4.438 c 3.805,0 7.041,-1.354 9.713,-4.063 2.671,-2.71 4.006,-5.967 4.006,-9.771 v -0.979 h -13.776 c -6.38,0 -11.865,-2.238 -16.457,-6.716 -4.593,-4.477 -6.889,-9.904 -6.889,-16.284 0,-6.379 2.299,-11.826 6.896,-16.342 4.597,-4.516 10.091,-6.773 16.478,-6.773 6.387,0 11.89,2.258 16.506,6.773 4.617,4.516 6.927,9.963 6.927,16.342 v 23.978 z m -9.857,-10.144 v -13.835 c 0,-3.805 -1.319,-7.08 -3.957,-9.828 -2.639,-2.747 -5.863,-4.122 -9.676,-4.122 -3.813,0 -7.037,1.375 -9.676,4.122 -2.638,2.748 -3.956,6.023 -3.956,9.828 0,3.805 1.318,7.062 3.956,9.771 2.639,2.709 5.863,4.064 9.676,4.064 h 13.633 z"
               inkscape:connector-curvature="0"
               style="fill:#3b4d4f" />
            <path
               id="path3272"
               d="m 6519.372,1354.771 c 0,3.805 1.325,7.062 3.977,9.771 2.652,2.709 5.88,4.064 9.685,4.064 h 4.438 c 2.536,0 4.698,0.894 6.485,2.68 1.786,1.787 2.68,3.949 2.68,6.485 h -13.604 c -6.38,0 -11.865,-2.238 -16.457,-6.716 -4.593,-4.477 -6.889,-9.904 -6.889,-16.284 v -34.586 c 2.651,0 4.929,0.951 6.831,2.853 1.902,1.902 2.854,4.18 2.854,6.831 v 24.902 z"
               inkscape:connector-curvature="0"
               style="fill:#3b4d4f" />
            <path
               id="path3274"
               d="m 6553.899,1377.771 c -2.652,0 -4.929,-0.951 -6.831,-2.854 -1.902,-1.903 -2.854,-4.179 -2.854,-6.831 v -36.431 c 2.651,0 4.929,0.951 6.831,2.854 1.902,1.903 2.854,4.179 2.854,6.831 v 36.431 z"
               inkscape:connector-curvature="0"
               style="fill:#3b4d4f" />
            <path
               id="path3276"
               d="m 6568.367,1329.869 v 1.787 h 13.661 c 6.417,0 11.922,2.239 16.515,6.716 4.592,4.478 6.889,9.905 6.889,16.284 0,6.38 -2.306,11.827 -6.917,16.342 -4.612,4.517 -10.107,6.773 -16.486,6.773 -6.38,0 -11.865,-2.257 -16.457,-6.773 -4.593,-4.515 -6.889,-9.962 -6.889,-16.342 v -34.471 c 2.651,0 4.929,0.951 6.831,2.853 1.902,1.902 2.853,4.179 2.853,6.831 z m 27.264,24.787 c 0,-3.805 -1.319,-7.062 -3.957,-9.771 -2.639,-2.709 -5.863,-4.064 -9.676,-4.064 h -13.632 v 13.835 c 0,3.805 1.318,7.081 3.956,9.828 2.639,2.748 5.863,4.122 9.676,4.122 3.813,0 7.037,-1.374 9.676,-4.122 2.638,-2.747 3.957,-6.024 3.957,-9.828 z"
               inkscape:connector-curvature="0"
               style="fill:#3b4d4f" />
            <path
               id="path3278"
               d="m 6619.727,1368.086 c 0,2.652 -0.951,4.929 -2.854,6.831 -1.903,1.902 -4.179,2.854 -6.831,2.854 v -23.115 c 0,-6.379 2.296,-11.807 6.889,-16.284 4.592,-4.477 10.078,-6.716 16.457,-6.716 h 13.604 c 0,2.536 -0.894,4.698 -2.681,6.485 -1.787,1.786 -3.948,2.68 -6.485,2.68 h -4.438 c -3.804,0 -7.032,1.355 -9.684,4.064 -2.652,2.709 -3.978,5.966 -3.978,9.771 v 13.43 z"
               inkscape:connector-curvature="0"
               style="fill:#3b4d4f" />
            <path
               id="path3280"
               d="m 6695.643,1354.771 v 23 h -23.403 c -6.38,0 -11.865,-2.238 -16.457,-6.716 -4.593,-4.477 -6.889,-9.904 -6.889,-16.284 0,-6.379 2.296,-11.826 6.889,-16.342 4.592,-4.516 10.077,-6.773 16.457,-6.773 6.379,0 11.875,2.258 16.486,6.773 4.611,4.515 6.917,9.963 6.917,16.342 z m -9.8,13.835 v -13.835 c 0,-3.805 -1.319,-7.08 -3.957,-9.828 -2.639,-2.747 -5.863,-4.122 -9.676,-4.122 -3.813,0 -7.037,1.375 -9.676,4.122 -2.638,2.748 -3.956,6.023 -3.956,9.828 0,3.805 1.318,7.062 3.956,9.771 2.639,2.709 5.863,4.064 9.676,4.064 h 13.633 z"
               inkscape:connector-curvature="0"
               style="fill:#3b4d4f" />
            <path
               id="path3282"
               d="m 6710.745,1368.086 c 0,2.652 -0.951,4.929 -2.854,6.831 -1.903,1.902 -4.179,2.854 -6.831,2.854 v -23.115 c 0,-6.379 2.296,-11.807 6.889,-16.284 4.592,-4.477 10.078,-6.716 16.457,-6.716 h 13.604 c 0,2.536 -0.894,4.698 -2.681,6.485 -1.787,1.786 -3.948,2.68 -6.485,2.68 h -4.438 c -3.804,0 -7.032,1.355 -9.684,4.064 -2.652,2.709 -3.978,5.966 -3.978,9.771 v 13.43 z"
               inkscape:connector-curvature="0"
               style="fill:#3b4d4f" />
            <path
               id="path3284"
               d="m 6749.596,1377.771 c -2.652,0 -4.929,-0.951 -6.831,-2.854 -1.902,-1.903 -2.854,-4.179 -2.854,-6.831 v -36.431 c 2.651,0 4.929,0.951 6.831,2.854 1.902,1.903 2.854,4.179 2.854,6.831 v 36.431 z"
               inkscape:connector-curvature="0"
               style="fill:#3b4d4f" />
            <path
               id="path3286"
               d="m 6777.667,1377.771 c -6.38,0 -11.855,-2.238 -16.429,-6.716 -4.573,-4.477 -6.859,-9.904 -6.859,-16.284 0,-6.379 2.286,-11.826 6.859,-16.342 4.573,-4.516 10.049,-6.773 16.429,-6.773 h 13.661 c 0,2.536 -0.903,4.698 -2.709,6.485 -1.807,1.786 -3.978,2.68 -6.514,2.68 h -4.438 c -3.767,0 -6.975,1.384 -9.627,4.15 -2.651,2.768 -3.977,6.034 -3.977,9.8 0,3.767 1.325,7.014 3.977,9.742 2.652,2.729 5.86,4.093 9.627,4.093 h 4.438 c 2.536,0 4.707,0.894 6.514,2.68 1.806,1.787 2.709,3.949 2.709,6.485 h -13.661 z m -3.228,-27.669 h 16.89 c 0,2.553 -0.903,4.719 -2.709,6.497 -1.807,1.779 -3.978,2.668 -6.514,2.668 h -7.667 c -1.268,0 -2.344,-0.435 -3.228,-1.305 -0.885,-0.87 -1.326,-1.943 -1.326,-3.22 0,-1.314 0.433,-2.416 1.297,-3.306 0.865,-0.89 1.95,-1.334 3.257,-1.334 z"
               inkscape:connector-curvature="0"
               style="fill:#3b4d4f" />
            <path
               id="path3288"
               d="m 6816.289,1349.699 c 0,-4.995 1.796,-9.252 5.39,-12.769 3.593,-3.517 7.906,-5.274 12.941,-5.274 h 13.258 c 0,2.575 -0.903,4.747 -2.709,6.514 -1.807,1.769 -3.997,2.651 -6.571,2.651 h -2.018 c -2.96,0 -5.486,1.066 -7.58,3.199 -2.096,2.133 -3.142,4.698 -3.142,7.696 v 8.012 c 0,4.996 -1.787,9.252 -5.361,12.769 -3.573,3.517 -7.878,5.274 -12.912,5.274 h -13.258 c 0,-2.536 0.894,-4.698 2.681,-6.485 1.787,-1.786 3.948,-2.68 6.484,-2.68 h 2.075 c 2.998,0 5.534,-1.066 7.609,-3.199 2.075,-2.133 3.112,-4.698 3.112,-7.696 v -8.012 z"
               inkscape:connector-curvature="0"
               style="fill:#3b4d4f" />
          </g>
        </g>
      </g>
    </g>
    <path
       inkscape:connector-curvature="0"
       id="path4317"
       d="m -1680.0096,3063.2581 c -7.4143,-0.767 -16.1664,-3.5427 -21.5745,-6.8423 -3.3127,-2.0212 -9.5583,-6.9198 -9.5583,-7.4969 0,-0.2292 2.2735,-0.5719 5.0523,-0.7615 15.3493,-1.0471 38.6036,-11.9776 57.2133,-26.8926 9.9185,-7.9494 19.4369,-18.8232 22.4607,-25.659 0.6078,-1.3739 1.3943,-2.402 1.7479,-2.2847 0.8961,0.2972 2.4542,6.3104 3.107,11.9908 0.3779,3.2886 0.3643,6.4107 -0.044,10.0712 -2.8018,25.1265 -22.7688,44.7366 -48.5732,47.7046 -4.594,0.5284 -6.1155,0.5548 -9.8314,0.1704 z m -32.1163,-18.7367 c -2.9376,-0.6957 -2.5564,-0.9183 2.2027,-1.2863 15.6094,-1.2069 37.1967,-12.4094 52.7836,-27.3914 13.7762,-13.2416 17.4158,-23.8172 9.5133,-27.6427 -2.2357,-1.0823 -3.0508,-1.1675 -8.5517,-0.8932 l -6.0805,0.3031 3.4173,-1.5923 c 7.571,-3.5276 19.2541,-5.885 24.4005,-4.9236 4.827,0.9018 7.2478,3.7991 6.6279,7.9328 -0.8223,5.4836 -6.7017,14.3701 -14.3237,21.6497 -17.556,16.7675 -41.9243,30.405 -59.9288,33.5385 -5.2296,0.9102 -7.2484,0.9715 -10.0606,0.3054 z m -7.6395,-9.2481 c -5.7385,-2.6999 -4.7891,-10.022 2.5581,-19.7298 3.6808,-4.8634 13.9348,-14.6884 20.3746,-19.5221 19.3994,-14.5613 42.4811,-24.3664 55.232,-23.4625 5.031,0.3567 6.211,1.4968 1.5491,1.4968 -9.8348,0 -24.0794,5.473 -38.0504,14.6197 -11.6016,7.5954 -20.1603,15.5002 -25.4252,23.4827 -6.1752,9.3628 -5.5381,15.6592 1.7852,17.6439 2.1779,0.5903 7.6366,0.4177 11.3082,-0.3575 1.3586,-0.2869 1.3719,-0.2657 0.3524,0.5579 -0.5829,0.4709 -2.4185,1.3645 -4.0791,1.9859 -10.9554,4.0989 -21.1068,5.4013 -25.6049,3.285 z m 112.7531,-8.798 c -3.9852,-1.1945 -7.34,-4.9102 -7.8471,-8.6911 l -0.2976,-2.2182 3.244,0 3.2439,0 0.9397,2.1298 c 1.5496,3.5122 6.1709,4.8894 10.4323,3.1089 3.1979,-1.3362 3.2991,-4.9138 0.1846,-6.5224 -0.9834,-0.508 -4.0001,-1.5457 -6.7038,-2.3062 -7.7332,-2.1751 -10.2911,-4.7682 -9.9632,-10.1005 0.3539,-5.7551 4.8277,-9.2366 11.8749,-9.2411 4.7912,0 7.3157,0.7879 9.8648,3.0908 2.0829,1.8818 3.6972,5.5566 2.9628,6.7448 -0.1813,0.2935 -1.6428,0.5336 -3.2476,0.5336 -2.7581,0 -2.9798,-0.1051 -4.0507,-1.9201 -1.649,-2.7949 -5.5436,-3.8884 -8.4327,-2.3677 -1.5633,0.8229 -1.9938,1.5243 -2.0039,3.2651 -0.012,1.9807 0.6651,2.4006 6.5721,4.078 5.9288,1.6835 8.4905,2.8601 10.1784,4.6747 4.6773,5.0285 1.9214,13.285 -5.2339,15.6807 -2.1326,0.714 -9.4118,0.7518 -11.717,0.061 z m 44.7024,-0.6953 c -3.1512,-1.5 -5.936,-4.4377 -7.5849,-8.0015 -1.637,-3.5377 -1.6287,-12.2959 0.015,-15.8949 2.7576,-6.0382 7.6847,-9.2575 14.1688,-9.2575 4.5805,0 7.0357,0.8794 10.0442,3.5974 2.1665,1.9573 4.2632,6.2047 3.5959,7.2844 -0.1999,0.3235 -1.6596,0.5882 -3.2438,0.5882 -2.7244,0 -2.9518,-0.1102 -4.2007,-2.0344 -1.7356,-2.6739 -3.458,-3.523 -6.6147,-3.2607 -5.2966,0.4402 -7.7895,3.9633 -7.8048,11.0301 -0.011,5.1301 1.1663,7.9825 4.1344,10.0162 1.5588,1.0681 2.383,1.241 5.031,1.0557 2.6262,-0.1838 3.4454,-0.5002 4.7983,-1.8531 0.9571,-0.9571 1.6799,-2.2963 1.7488,-3.2403 0.116,-1.5886 0.076,-1.6125 -3.1596,-1.8821 l -3.2772,-0.2731 0,-2.4579 0,-2.4578 6.5543,0 6.5543,0 0,8.739 0,8.739 -1.8522,0 c -1.2861,0 -2.0372,-0.3338 -2.4578,-1.0924 -0.3332,-0.6008 -0.6627,-1.1903 -0.7324,-1.31 -0.07,-0.1198 -1.1547,0.4947 -2.4111,1.3654 -1.9489,1.3506 -2.8932,1.6066 -6.4276,1.7427 -3.4488,0.1328 -4.6015,-0.059 -6.8781,-1.1424 z m 33.8677,-0.029 c -3.5318,-1.6482 -6.3886,-4.8584 -7.9062,-8.8845 -1.5907,-4.22 -1.3824,-11.1027 0.4608,-15.2282 2.5561,-5.7209 7.5264,-8.9974 13.6632,-9.0067 4.6784,-0.01 7.3056,0.8664 10.1588,3.3779 2.3884,2.1023 4.5713,6.3448 3.8583,7.4985 -0.1999,0.3235 -1.6596,0.5882 -3.2438,0.5882 -2.7244,0 -2.9517,-0.1101 -4.2007,-2.0344 -1.6036,-2.4706 -3.33,-3.4088 -6.2919,-3.4195 -2.8857,-0.01 -5.6121,1.7861 -7.0447,4.6418 -1.5711,3.1319 -1.5544,10.6762 0.03,13.3726 1.6442,2.799 4.2733,4.3729 7.2882,4.3633 3.1629,-0.01 4.8705,-0.867 6.4761,-3.2495 1.9122,-2.8375 1.4964,-3.5237 -2.3287,-3.8429 l -3.2723,-0.2731 0,-2.4579 0,-2.4578 6.5542,0 6.5543,0 0,8.739 0,8.739 -1.9117,0 c -1.4586,0 -2.0394,-0.2912 -2.4508,-1.2289 -0.6392,-1.457 -1.5038,-1.5679 -2.5345,-0.325 -2.1989,2.6514 -9.3116,3.2098 -13.8582,1.0881 z m -54.6341,0.077 c -0.1513,-0.3943 -0.2098,-7.8416 -0.1299,-16.5497 l 0.1451,-15.8328 3.2771,0 3.2772,0 0,16.3857 0,16.3856 -3.1472,0.164 c -2.2167,0.1155 -3.2285,-0.048 -3.4223,-0.5528 z m 81.9283,0 c -0.1513,-0.3943 -0.2097,-7.8416 -0.1299,-16.5497 l 0.1451,-15.8328 9.5583,-0.1478 c 9.0112,-0.1393 9.6988,-0.077 12.0118,1.0924 3.3909,1.714 4.9201,4.1729 4.9201,7.9111 0,3.2436 -0.5123,4.5802 -2.6233,6.8436 l -1.3974,1.4983 1.1228,1.2326 c 1.8839,2.0681 2.3322,3.4194 2.8894,8.7085 0.2946,2.7976 0.54,5.2708 0.5452,5.4961 0.016,0.7054 -5.828,0.4562 -6.4055,-0.2731 -0.2973,-0.3755 -0.7965,-2.7426 -1.1093,-5.2603 -0.7893,-6.3522 -1.3886,-6.8924 -7.6464,-6.8924 l -4.7652,0 -0.2731,6.2812 -0.2731,6.2811 -3.1472,0.164 c -2.2166,0.1155 -3.2285,-0.048 -3.4223,-0.5528 z m 16.604,-17.9659 c 0.9524,-0.332 1.9722,-1.0532 2.2663,-1.6027 0.6941,-1.2969 0.6847,-4.1394 -0.018,-5.4524 -0.684,-1.278 -3.7355,-2.1656 -7.459,-2.1697 -4.4899,0 -4.5507,0.061 -4.5507,4.9256 0,2.9014 0.2183,4.3537 0.6827,4.5411 1.2935,0.5219 7.3506,0.3605 9.0787,-0.2419 z m 13.1785,17.7695 c 0,-0.9004 10.4704,-29.4991 11.514,-31.449 0.4312,-0.8058 1.1861,-1.0102 3.7317,-1.0102 1.9246,0 3.421,0.2772 3.7706,0.6984 0.8074,0.9729 11.5703,30.4271 11.5703,31.6639 0,0.8889 -0.4014,0.9882 -3.4136,0.8447 l -3.4136,-0.1626 -1.0924,-3.0048 c -1.65,-4.5382 -1.3652,-4.3687 -7.3391,-4.3687 -6.0895,0 -6.102,0.01 -7.6046,4.4374 l -0.9958,2.9361 -3.3637,0.1626 c -2.8406,0.1374 -3.3638,0.021 -3.3638,-0.7478 z m 19.1166,-12.6846 c 0,-1.5129 -3.2251,-9.6701 -3.8233,-9.6701 -0.5982,0 -3.8233,8.1572 -3.8233,9.6701 0,0.2389 1.7205,0.4344 3.8233,0.4344 2.1028,0 3.8233,-0.1955 3.8233,-0.4344 z m 13.3665,12.881 c -0.1513,-0.3943 -0.2098,-7.8416 -0.13,-16.5497 l 0.1452,-15.8328 8.0797,-0.1513 c 8.8829,-0.1663 11.5034,0.2847 14.0357,2.4155 2.5006,2.1041 3.4715,4.3733 3.4715,8.1134 0,7.2884 -4.189,10.6507 -13.2697,10.6507 -5.739,0 -5.404,-0.4228 -5.626,7.1004 l -0.137,4.6426 -3.1472,0.164 c -2.2166,0.1155 -3.2285,-0.048 -3.4222,-0.5528 z m 15.8282,-17.5892 c 2.114,-0.8832 3.0305,-2.2721 3.0305,-4.5924 0,-2.2305 -1.5086,-3.8802 -4.0964,-4.4798 -3.0646,-0.7101 -6.4892,-0.652 -7.2644,0.1231 -0.3867,0.3867 -0.6554,2.2455 -0.6554,4.5334 0,2.2879 0.2687,4.1467 0.6554,4.5334 0.8987,0.8987 6.0727,0.8256 8.3303,-0.1177 z m 13.1198,17.5892 c -0.1513,-0.3943 -0.2098,-7.8416 -0.13,-16.5497 l 0.1452,-15.8328 3.2771,0 3.2771,0 0.1547,6.1618 0.1545,6.1618 6.3997,-0.1537 6.3997,-0.1537 0.2731,-6.0081 0.2731,-6.0081 3.2771,0 3.2771,0 0,16.3857 0,16.3856 -3.2771,0 -3.2771,0 -0.2731,-6.8273 -0.2731,-6.8274 -6.4013,-0.1537 -6.4013,-0.1538 -0.153,6.9811 -0.153,6.9811 -3.1472,0.164 c -2.2166,0.1155 -3.2285,-0.048 -3.4222,-0.5528 z m 111.1128,0.1511 c -4.5777,-0.8908 -8.141,-4.5021 -8.141,-8.2505 0,-3.5717 2.1965,-3.2525 2.9847,0.4337 0.5037,2.3555 3.1484,4.922 5.533,5.3693 4.38,0.8217 7.9287,-0.7738 9.7135,-4.3673 2.0366,-4.1003 -0.7168,-8.4608 -5.641,-8.9339 -2.747,-0.264 -4.2514,-1.2216 -3.5929,-2.287 0.1938,-0.3135 1.0592,-0.5701 1.9231,-0.5701 3.9213,0 6.5576,-2.3174 6.5576,-5.7643 0,-7.667 -11.6375,-8.2815 -13.673,-0.7219 -0.6142,2.2809 -1.8258,3.222 -2.8411,2.2068 -0.8549,-0.855 0.3274,-4.5093 2.1657,-6.694 2.9059,-3.4534 8.8274,-4.3232 13.3066,-1.9546 4.7104,2.491 5.6281,8.5913 1.8311,12.1724 l -1.8487,1.7435 1.8958,1.446 c 4.5001,3.4324 4.782,8.9971 0.6715,13.2588 -2.3988,2.4869 -6.8671,3.6872 -10.8449,2.9131 z m -45.6034,-1.0682 c -4.1164,-2.5101 -5.7683,-6.9644 -5.7549,-15.5183 0.018,-11.471 3.807,-16.6311 11.8374,-16.1197 5.951,0.3789 8.9318,3.8995 10.0888,11.9157 1.3291,9.2094 -1.1646,17.4258 -6.0563,19.9555 -2.2724,1.175 -8.0231,1.0425 -10.115,-0.2332 z m 8.902,-2.2249 c 0.9642,-0.5879 2.316,-2.1232 3.004,-3.4116 1.1264,-2.1094 1.251,-3.0772 1.251,-9.7163 0,-6.6134 -0.1275,-7.6121 -1.236,-9.6869 -3.2044,-5.9976 -10.1051,-5.9051 -13.238,0.1776 -1.2428,2.4128 -1.3655,3.266 -1.3655,9.4939 0,5.8806 0.1676,7.2055 1.1918,9.4226 2.0457,4.4284 6.5735,6.0494 10.3927,3.7207 z m -39.4484,2.152 c -0.5918,-0.9575 0.2854,-3.6516 1.9267,-5.9175 0.8649,-1.1939 3.9822,-3.8845 6.9275,-5.9791 7.5373,-5.3604 8.9052,-7.0428 8.9052,-10.9522 0,-4.3768 -4.7205,-7.518 -9.2559,-6.1592 -2.5988,0.7787 -4.2951,2.7824 -4.7468,5.6071 -0.4259,2.6639 -1.5551,3.7211 -2.7249,2.5512 -1.86,-1.86 1.2703,-8.1975 4.8997,-9.9197 4.3129,-2.0467 11.3195,-0.4676 13.4531,3.0319 1.1945,1.9592 1.4977,6.4399 0.5961,8.8111 -0.8636,2.2716 -3.8779,5.2656 -8.1958,8.1408 -5.0255,3.3463 -8.2264,6.3162 -8.2264,7.6327 0,0.9006 0.67,0.9815 8.126,0.9815 6.448,0 8.2622,0.1642 8.786,0.7954 0.363,0.4374 0.5015,1.0519 0.3077,1.3654 -0.4755,0.7695 -20.303,0.7796 -20.7782,0.011 z m 58.5415,0.1954 c -0.2003,-0.2002 -0.3641,-5.4583 -0.3641,-11.6846 0,-12.8657 0.3651,-11.9836 -4.9604,-11.9836 -2.3988,0 -3.2325,-0.1962 -3.2325,-0.7608 0,-0.9096 1.1734,-1.4239 3.2482,-1.4239 1.9815,0 4.2231,-1.8001 5.2238,-4.195 0.451,-1.0794 1.0979,-1.8093 1.4882,-1.6793 0.531,0.1768 0.7239,3.9094 0.8353,16.1606 0.138,15.1834 0.097,15.9307 -0.8648,15.9307 -0.5553,0 -1.1735,-0.1638 -1.3737,-0.3641 z m -411.6107,-4.298 c -3.6848,-11.93 -2.1728,-25.9482 4.077,-37.8003 12.5328,-23.7673 40.5892,-34.9258 65.7847,-26.1637 5.2201,1.8154 11.4505,5.4458 15.2113,8.8635 l 3.0771,2.7964 -4.6297,0.3893 c -2.5464,0.2142 -6.2273,0.748 -8.18,1.1864 -26.3278,5.9105 -61.9898,30.9759 -71.6481,50.3586 -0.9411,1.8886 -1.9066,3.5548 -2.1455,3.7024 -0.239,0.1477 -0.935,-1.352 -1.5468,-3.3326 z"
       style="fill:#3b4d4f;fill-opacity:1" />
  </g>
</svg>
